<?xml version="1.0" encoding="UTF-8"?>
<svg xmlns="http://www.w3.org/2000/svg" xmlns:xlink="http://www.w3.org/1999/xlink" width="177.9pt" height="97.42pt" viewBox="0 0 177.9 97.42" version="1.1">
<defs>
<clipPath id="clip1">
  <path d="M 0 0 L 177.898438 0 L 177.898438 97.421875 L 0 97.421875 Z M 0 0 "/>
</clipPath>
</defs>
<g id="surface1">
<g clip-path="url(#clip1)" clip-rule="nonzero">
<path style=" stroke:none;fill-rule:nonzero;fill:rgb(0%,26.298523%,57.598877%);fill-opacity:1;" d="M 0 97.421875 L 177.898438 97.421875 L 177.898438 0 L 0 0 Z M 0 97.421875 "/>
</g>
<path style="fill-rule:nonzero;fill:rgb(0%,26.298523%,57.598877%);fill-opacity:1;stroke-width:8.63;stroke-linecap:butt;stroke-linejoin:miter;stroke:rgb(100%,100%,100%);stroke-opacity:1;stroke-miterlimit:22.926;" d="M 261.132813 258.067188 L 687.1875 258.067188 L 687.1875 505.996875 L 261.132813 505.996875 Z M 261.132813 258.067188 " transform="matrix(0.1,0,0,-0.1,0,97.42)"/>
<path style="fill-rule:nonzero;fill:rgb(61.199951%,61.599731%,62.399292%);fill-opacity:1;stroke-width:8.63;stroke-linecap:butt;stroke-linejoin:miter;stroke:rgb(100%,100%,100%);stroke-opacity:1;stroke-miterlimit:22.926;" d="M 260.195313 510.7625 L 687.070313 510.7625 L 687.070313 716.153125 L 260.195313 716.153125 Z M 260.195313 510.7625 " transform="matrix(0.1,0,0,-0.1,0,97.42)"/>
<path style=" stroke:none;fill-rule:evenodd;fill:rgb(100%,100%,100%);fill-opacity:1;" d="M 71.769531 56.566406 C 71.804688 56.234375 71.835938 55.859375 71.855469 55.4375 C 71.875 55.015625 71.882813 54.425781 71.882813 53.679688 L 71.882813 52.042969 C 71.882813 51.191406 71.875 50.527344 71.855469 50.046875 C 71.835938 49.5625 71.804688 49.128906 71.769531 48.738281 C 71.90625 48.753906 72.042969 48.765625 72.171875 48.773438 C 72.304688 48.78125 72.449219 48.785156 72.597656 48.785156 C 72.828125 48.785156 73.179688 48.777344 73.667969 48.761719 C 74.152344 48.746094 74.523438 48.738281 74.78125 48.738281 C 75.492188 48.738281 76.054688 48.792969 76.472656 48.90625 C 76.882813 49.019531 77.242188 49.203125 77.550781 49.460938 C 77.933594 49.785156 78.226563 50.207031 78.4375 50.726563 C 78.640625 51.25 78.746094 51.832031 78.746094 52.472656 C 78.746094 53.835938 78.378906 54.859375 77.644531 55.542969 C 76.910156 56.222656 75.8125 56.566406 74.351563 56.566406 C 74.09375 56.566406 73.757813 56.558594 73.355469 56.546875 C 72.953125 56.539063 72.679688 56.53125 72.539063 56.53125 C 72.402344 56.53125 72.203125 56.539063 71.957031 56.554688 C 71.875 56.558594 71.8125 56.5625 71.769531 56.566406 M 73.484375 55.867188 C 73.621094 55.886719 73.746094 55.90625 73.871094 55.917969 C 73.996094 55.929688 74.109375 55.933594 74.21875 55.933594 C 75.148438 55.933594 75.847656 55.652344 76.320313 55.089844 C 76.789063 54.53125 77.023438 53.695313 77.023438 52.578125 C 77.023438 51.453125 76.804688 50.644531 76.367188 50.152344 C 75.929688 49.65625 75.214844 49.40625 74.226563 49.40625 C 74.164063 49.40625 74.019531 49.410156 73.789063 49.417969 C 73.671875 49.421875 73.578125 49.421875 73.507813 49.425781 C 73.496094 49.933594 73.480469 50.484375 73.476563 51.074219 C 73.46875 51.65625 73.464844 52.3125 73.464844 53.027344 C 73.464844 53.785156 73.464844 54.363281 73.472656 54.757813 C 73.472656 55.15625 73.480469 55.523438 73.484375 55.867188 "/>
<path style=" stroke:none;fill-rule:evenodd;fill:rgb(100%,100%,100%);fill-opacity:1;" d="M 79.996094 56.566406 C 80.039063 56.160156 80.070313 55.699219 80.09375 55.179688 C 80.113281 54.660156 80.121094 53.824219 80.121094 52.660156 L 80.121094 52.089844 C 80.121094 51.21875 80.113281 50.546875 80.09375 50.054688 C 80.070313 49.566406 80.039063 49.128906 79.996094 48.738281 C 80.332031 48.753906 80.675781 48.765625 81.027344 48.773438 C 81.382813 48.78125 81.753906 48.785156 82.140625 48.785156 C 82.527344 48.785156 82.882813 48.78125 83.207031 48.773438 C 83.527344 48.765625 83.832031 48.753906 84.117188 48.738281 C 84.097656 48.867188 84.085938 48.96875 84.082031 49.035156 C 84.078125 49.109375 84.074219 49.171875 84.074219 49.230469 C 84.074219 49.292969 84.078125 49.351563 84.082031 49.417969 C 84.085938 49.484375 84.097656 49.582031 84.117188 49.710938 C 83.582031 49.671875 83.121094 49.648438 82.734375 49.628906 C 82.34375 49.605469 82.003906 49.59375 81.71875 49.589844 C 81.703125 49.726563 81.691406 49.875 81.6875 50.03125 C 81.683594 50.191406 81.679688 50.417969 81.679688 50.726563 L 81.679688 51.273438 L 81.683594 52.050781 C 81.910156 52.046875 82.296875 52.027344 82.839844 52.011719 C 83.386719 51.988281 83.796875 51.972656 84.074219 51.964844 C 84.058594 52.078125 84.046875 52.171875 84.039063 52.238281 C 84.039063 52.308594 84.03125 52.375 84.03125 52.441406 C 84.03125 52.546875 84.042969 52.699219 84.070313 52.902344 C 84.070313 52.917969 84.074219 52.929688 84.074219 52.9375 C 83.421875 52.894531 82.921875 52.867188 82.582031 52.851563 C 82.234375 52.835938 81.9375 52.828125 81.679688 52.828125 L 81.679688 54.207031 C 81.679688 54.699219 81.683594 55.042969 81.691406 55.238281 C 81.699219 55.441406 81.707031 55.605469 81.722656 55.738281 C 82.050781 55.726563 82.414063 55.710938 82.8125 55.679688 C 83.210938 55.652344 83.644531 55.613281 84.117188 55.570313 C 84.105469 55.644531 84.097656 55.71875 84.09375 55.796875 C 84.085938 55.867188 84.085938 55.941406 84.085938 56.019531 C 84.085938 56.09375 84.089844 56.199219 84.101563 56.332031 C 84.109375 56.457031 84.117188 56.535156 84.117188 56.566406 C 83.402344 56.539063 82.855469 56.53125 82.472656 56.523438 C 82.089844 56.511719 81.78125 56.507813 81.546875 56.507813 C 81.226563 56.507813 80.941406 56.511719 80.691406 56.523438 C 80.441406 56.535156 80.210938 56.546875 79.996094 56.566406 "/>
<path style=" stroke:none;fill-rule:evenodd;fill:rgb(100%,100%,100%);fill-opacity:1;" d="M 85.367188 56.566406 C 85.410156 56.042969 85.445313 55.472656 85.464844 54.859375 C 85.484375 54.25 85.496094 53.515625 85.496094 52.660156 C 85.496094 51.839844 85.484375 51.113281 85.464844 50.472656 C 85.445313 49.835938 85.410156 49.257813 85.367188 48.738281 C 85.519531 48.761719 85.664063 48.78125 85.816406 48.792969 C 85.96875 48.804688 86.117188 48.8125 86.265625 48.8125 C 86.414063 48.8125 86.5625 48.804688 86.710938 48.792969 C 86.863281 48.78125 87.011719 48.761719 87.160156 48.738281 C 87.121094 49.265625 87.085938 49.851563 87.066406 50.488281 C 87.042969 51.128906 87.03125 51.851563 87.03125 52.660156 C 87.03125 53.449219 87.039063 54.078125 87.046875 54.546875 C 87.0625 55.011719 87.078125 55.410156 87.105469 55.746094 C 87.542969 55.738281 87.960938 55.714844 88.363281 55.695313 C 88.761719 55.667969 89.15625 55.628906 89.539063 55.59375 C 89.527344 55.667969 89.527344 55.746094 89.519531 55.824219 C 89.515625 55.90625 89.507813 55.988281 89.507813 56.074219 C 89.507813 56.152344 89.515625 56.230469 89.519531 56.3125 C 89.527344 56.394531 89.527344 56.476563 89.539063 56.566406 C 89.042969 56.535156 88.625 56.515625 88.277344 56.503906 C 87.925781 56.496094 87.609375 56.488281 87.332031 56.488281 C 87.078125 56.488281 86.796875 56.496094 86.492188 56.503906 C 86.1875 56.515625 85.808594 56.535156 85.367188 56.566406 "/>
<path style=" stroke:none;fill-rule:evenodd;fill:rgb(100%,100%,100%);fill-opacity:1;" d="M 99.191406 50.539063 L 99.039063 50.5625 C 98.925781 50.15625 98.699219 49.839844 98.355469 49.613281 C 98.015625 49.386719 97.589844 49.273438 97.085938 49.273438 C 96.316406 49.273438 95.714844 49.5625 95.289063 50.144531 C 94.863281 50.722656 94.648438 51.535156 94.648438 52.578125 C 94.648438 53.707031 94.867188 54.5625 95.304688 55.15625 C 95.738281 55.746094 96.371094 56.042969 97.203125 56.042969 C 97.5625 56.042969 97.921875 55.964844 98.285156 55.816406 C 98.652344 55.667969 98.976563 55.460938 99.273438 55.191406 L 99.402344 55.226563 L 99.160156 56.1875 C 98.820313 56.367188 98.460938 56.5 98.09375 56.585938 C 97.722656 56.671875 97.332031 56.71875 96.921875 56.71875 C 95.671875 56.71875 94.703125 56.355469 94.007813 55.636719 C 93.308594 54.917969 92.964844 53.914063 92.964844 52.621094 C 92.964844 51.398438 93.335938 50.417969 94.089844 49.683594 C 94.835938 48.953125 95.835938 48.582031 97.09375 48.582031 C 97.492188 48.582031 97.882813 48.628906 98.277344 48.722656 C 98.667969 48.816406 99.0625 48.957031 99.46875 49.152344 C 99.402344 49.363281 99.347656 49.582031 99.304688 49.808594 C 99.257813 50.039063 99.21875 50.28125 99.1875 50.539063 "/>
<path style=" stroke:none;fill-rule:evenodd;fill:rgb(100%,100%,100%);fill-opacity:1;" d="M 100.433594 56.566406 C 100.472656 56.050781 100.503906 55.488281 100.527344 54.878906 C 100.542969 54.269531 100.558594 53.527344 100.558594 52.660156 C 100.558594 51.855469 100.542969 51.132813 100.527344 50.496094 C 100.507813 49.855469 100.472656 49.265625 100.433594 48.738281 C 100.582031 48.761719 100.730469 48.78125 100.882813 48.792969 C 101.03125 48.804688 101.179688 48.8125 101.328125 48.8125 C 101.480469 48.8125 101.628906 48.804688 101.777344 48.792969 C 101.929688 48.78125 102.078125 48.761719 102.226563 48.738281 C 102.195313 49.082031 102.175781 49.398438 102.160156 49.703125 C 102.144531 50.003906 102.140625 50.296875 102.140625 50.574219 L 102.140625 51.925781 C 102.578125 51.945313 102.910156 51.960938 103.128906 51.964844 C 103.355469 51.972656 103.554688 51.972656 103.738281 51.972656 C 103.925781 51.972656 104.132813 51.972656 104.347656 51.964844 C 104.574219 51.960938 104.902344 51.945313 105.34375 51.925781 L 105.34375 50.574219 C 105.34375 50.296875 105.339844 50.003906 105.324219 49.703125 C 105.3125 49.398438 105.285156 49.082031 105.257813 48.738281 C 105.40625 48.761719 105.558594 48.78125 105.703125 48.792969 C 105.855469 48.804688 106.003906 48.8125 106.15625 48.8125 C 106.300781 48.8125 106.453125 48.804688 106.605469 48.792969 C 106.75 48.78125 106.898438 48.761719 107.050781 48.738281 C 107.011719 49.265625 106.980469 49.855469 106.957031 50.496094 C 106.9375 51.132813 106.925781 51.855469 106.925781 52.660156 C 106.925781 53.527344 106.9375 54.269531 106.957031 54.878906 C 106.980469 55.488281 107.007813 56.050781 107.050781 56.566406 C 106.882813 56.546875 106.726563 56.535156 106.578125 56.523438 C 106.429688 56.511719 106.289063 56.507813 106.15625 56.507813 C 106.019531 56.507813 105.875 56.511719 105.730469 56.523438 C 105.578125 56.535156 105.425781 56.546875 105.261719 56.566406 C 105.285156 56.269531 105.304688 55.972656 105.320313 55.691406 C 105.339844 55.40625 105.34375 55.128906 105.34375 54.859375 L 105.339844 52.773438 C 105.074219 52.761719 104.804688 52.75 104.539063 52.75 C 104.277344 52.742188 104.011719 52.742188 103.738281 52.742188 C 103.472656 52.742188 103.203125 52.742188 102.941406 52.75 C 102.679688 52.75 102.410156 52.761719 102.144531 52.773438 L 102.140625 54.859375 C 102.140625 55.128906 102.144531 55.40625 102.160156 55.691406 C 102.175781 55.972656 102.191406 56.269531 102.222656 56.566406 C 102.054688 56.546875 101.898438 56.535156 101.75 56.523438 C 101.609375 56.511719 101.464844 56.507813 101.328125 56.507813 C 101.191406 56.507813 101.046875 56.511719 100.902344 56.523438 C 100.757813 56.535156 100.601563 56.546875 100.433594 56.566406 "/>
<path style=" stroke:none;fill-rule:evenodd;fill:rgb(100%,100%,100%);fill-opacity:1;" d="M 109.722656 53.503906 L 109.75 53.503906 C 110.160156 53.519531 110.46875 53.527344 110.675781 53.527344 L 111.035156 53.527344 C 111.160156 53.527344 111.359375 53.519531 111.621094 53.503906 C 111.484375 53.050781 111.339844 52.605469 111.183594 52.167969 C 111.027344 51.726563 110.863281 51.300781 110.699219 50.882813 C 110.519531 51.285156 110.347656 51.710938 110.1875 52.148438 C 110.027344 52.585938 109.871094 53.035156 109.722656 53.503906 M 107.703125 56.566406 C 108.222656 55.339844 108.726563 54.0625 109.222656 52.742188 C 109.714844 51.421875 110.203125 50.035156 110.6875 48.59375 C 110.761719 48.605469 110.835938 48.613281 110.90625 48.621094 C 110.976563 48.625 111.042969 48.628906 111.113281 48.628906 C 111.179688 48.628906 111.246094 48.625 111.308594 48.621094 C 111.371094 48.613281 111.4375 48.605469 111.496094 48.59375 C 111.925781 49.859375 112.386719 51.160156 112.878906 52.488281 C 113.375 53.816406 113.90625 55.171875 114.46875 56.566406 C 114.332031 56.550781 114.191406 56.539063 114.035156 56.535156 C 113.886719 56.527344 113.726563 56.523438 113.546875 56.523438 C 113.375 56.523438 113.214844 56.527344 113.066406 56.535156 C 112.914063 56.539063 112.769531 56.550781 112.628906 56.566406 C 112.542969 56.277344 112.453125 55.972656 112.355469 55.652344 C 112.253906 55.328125 112.113281 54.863281 111.917969 54.261719 C 111.777344 54.253906 111.617188 54.25 111.445313 54.242188 C 111.273438 54.238281 111.015625 54.238281 110.675781 54.238281 C 110.332031 54.238281 110.074219 54.238281 109.902344 54.242188 C 109.726563 54.25 109.570313 54.253906 109.425781 54.261719 C 109.21875 54.910156 109.066406 55.390625 108.957031 55.710938 C 108.851563 56.027344 108.753906 56.3125 108.664063 56.566406 C 108.566406 56.550781 108.480469 56.539063 108.410156 56.535156 C 108.335938 56.527344 108.269531 56.523438 108.207031 56.523438 C 108.109375 56.523438 107.960938 56.535156 107.761719 56.558594 C 107.738281 56.5625 107.714844 56.566406 107.703125 56.566406 "/>
<path style=" stroke:none;fill-rule:evenodd;fill:rgb(100%,100%,100%);fill-opacity:1;" d="M 120.953125 50.539063 L 120.800781 50.5625 C 120.6875 50.15625 120.457031 49.839844 120.117188 49.613281 C 119.777344 49.386719 119.351563 49.273438 118.84375 49.273438 C 118.078125 49.273438 117.476563 49.5625 117.050781 50.144531 C 116.621094 50.722656 116.410156 51.535156 116.410156 52.578125 C 116.410156 53.707031 116.628906 54.5625 117.066406 55.15625 C 117.5 55.746094 118.132813 56.042969 118.964844 56.042969 C 119.324219 56.042969 119.683594 55.964844 120.050781 55.816406 C 120.410156 55.667969 120.738281 55.460938 121.035156 55.191406 L 121.164063 55.226563 L 120.921875 56.1875 C 120.578125 56.367188 120.222656 56.5 119.855469 56.585938 C 119.484375 56.671875 119.09375 56.71875 118.683594 56.71875 C 117.433594 56.71875 116.464844 56.355469 115.769531 55.636719 C 115.074219 54.917969 114.722656 53.914063 114.722656 52.621094 C 114.722656 51.398438 115.097656 50.417969 115.847656 49.683594 C 116.597656 48.953125 117.597656 48.582031 118.851563 48.582031 C 119.25 48.582031 119.644531 48.628906 120.039063 48.722656 C 120.429688 48.816406 120.824219 48.957031 121.226563 49.152344 C 121.164063 49.363281 121.113281 49.582031 121.066406 49.808594 C 121.015625 50.039063 120.976563 50.28125 120.953125 50.539063 "/>
<path style=" stroke:none;fill-rule:evenodd;fill:rgb(100%,100%,100%);fill-opacity:1;" d="M 121.773438 52.773438 C 121.773438 51.46875 122.140625 50.445313 122.875 49.707031 C 123.605469 48.96875 124.628906 48.59375 125.925781 48.59375 C 127.175781 48.59375 128.144531 48.949219 128.828125 49.652344 C 129.507813 50.355469 129.847656 51.359375 129.847656 52.660156 C 129.847656 53.890625 129.480469 54.875 128.75 55.613281 C 128.015625 56.347656 127.039063 56.714844 125.8125 56.714844 C 124.511719 56.714844 123.519531 56.375 122.820313 55.695313 C 122.125 55.007813 121.773438 54.039063 121.773438 52.773438 M 123.492188 52.660156 C 123.492188 53.726563 123.695313 54.5625 124.105469 55.160156 C 124.515625 55.761719 125.085938 56.0625 125.8125 56.0625 C 126.527344 56.0625 127.09375 55.757813 127.503906 55.15625 C 127.914063 54.550781 128.117188 53.722656 128.117188 52.660156 C 128.117188 51.585938 127.914063 50.746094 127.503906 50.140625 C 127.09375 49.539063 126.527344 49.234375 125.8125 49.234375 C 125.089844 49.234375 124.519531 49.539063 124.109375 50.144531 C 123.695313 50.753906 123.492188 51.589844 123.492188 52.660156 "/>
<path style=" stroke:none;fill-rule:evenodd;fill:rgb(100%,100%,100%);fill-opacity:1;" d="M 133.546875 56.171875 C 133.605469 55.941406 133.671875 55.691406 133.730469 55.429688 C 133.785156 55.164063 133.84375 54.886719 133.894531 54.597656 L 134.039063 54.597656 C 134.128906 55.039063 134.316406 55.382813 134.589844 55.628906 C 134.859375 55.871094 135.195313 55.996094 135.59375 55.996094 C 135.957031 55.996094 136.246094 55.890625 136.464844 55.679688 C 136.683594 55.46875 136.792969 55.1875 136.792969 54.835938 C 136.792969 54.585938 136.722656 54.367188 136.582031 54.183594 C 136.441406 54 136.105469 53.75 135.5625 53.4375 C 134.738281 52.964844 134.199219 52.558594 133.953125 52.210938 C 133.703125 51.867188 133.578125 51.4375 133.578125 50.925781 C 133.578125 50.230469 133.808594 49.671875 134.265625 49.242188 C 134.726563 48.808594 135.332031 48.59375 136.085938 48.59375 C 136.417969 48.59375 136.722656 48.640625 137.003906 48.726563 C 137.28125 48.8125 137.550781 48.949219 137.796875 49.132813 C 137.726563 49.355469 137.660156 49.570313 137.601563 49.78125 C 137.539063 49.992188 137.488281 50.191406 137.445313 50.390625 L 137.328125 50.390625 C 137.222656 50.050781 137.035156 49.78125 136.785156 49.585938 C 136.527344 49.390625 136.234375 49.292969 135.894531 49.292969 C 135.582031 49.292969 135.328125 49.386719 135.140625 49.570313 C 134.945313 49.753906 134.851563 49.996094 134.851563 50.296875 C 134.851563 50.554688 134.921875 50.769531 135.0625 50.949219 C 135.207031 51.128906 135.523438 51.355469 136.015625 51.625 C 136.121094 51.691406 136.277344 51.773438 136.484375 51.878906 C 137.054688 52.179688 137.421875 52.417969 137.574219 52.589844 C 137.765625 52.800781 137.90625 53.035156 138 53.285156 C 138.089844 53.542969 138.136719 53.824219 138.136719 54.140625 C 138.136719 54.914063 137.894531 55.535156 137.40625 56.007813 C 136.917969 56.480469 136.269531 56.71875 135.453125 56.71875 C 135.027344 56.71875 134.65625 56.671875 134.34375 56.582031 C 134.03125 56.492188 133.765625 56.359375 133.546875 56.171875 "/>
<path style=" stroke:none;fill-rule:evenodd;fill:rgb(100%,100%,100%);fill-opacity:1;" d="M 139.144531 55.765625 C 139.144531 55.503906 139.230469 55.285156 139.394531 55.109375 C 139.558594 54.933594 139.769531 54.847656 140.011719 54.847656 C 140.257813 54.847656 140.464844 54.933594 140.628906 55.109375 C 140.796875 55.285156 140.878906 55.503906 140.878906 55.765625 C 140.878906 56.023438 140.792969 56.242188 140.621094 56.429688 C 140.453125 56.613281 140.25 56.707031 140.011719 56.707031 C 139.773438 56.707031 139.570313 56.613281 139.398438 56.429688 C 139.230469 56.242188 139.144531 56.023438 139.144531 55.765625 "/>
<path style=" stroke:none;fill-rule:evenodd;fill:rgb(100%,100%,100%);fill-opacity:1;" d="M 143.339844 53.503906 L 143.367188 53.503906 C 143.777344 53.519531 144.085938 53.527344 144.292969 53.527344 L 144.652344 53.527344 C 144.777344 53.527344 144.976563 53.519531 145.242188 53.503906 C 145.105469 53.050781 144.960938 52.605469 144.804688 52.167969 C 144.648438 51.726563 144.484375 51.300781 144.316406 50.882813 C 144.140625 51.285156 143.96875 51.710938 143.804688 52.148438 C 143.644531 52.585938 143.488281 53.035156 143.339844 53.503906 M 141.320313 56.566406 C 141.839844 55.339844 142.347656 54.0625 142.84375 52.742188 C 143.335938 51.421875 143.824219 50.035156 144.300781 48.59375 C 144.378906 48.605469 144.453125 48.613281 144.523438 48.621094 C 144.59375 48.625 144.660156 48.628906 144.730469 48.628906 C 144.796875 48.628906 144.863281 48.625 144.925781 48.621094 C 144.992188 48.613281 145.054688 48.605469 145.113281 48.59375 C 145.546875 49.859375 146.007813 51.160156 146.5 52.488281 C 146.992188 53.816406 147.523438 55.171875 148.085938 56.566406 C 147.953125 56.550781 147.808594 56.539063 147.65625 56.535156 C 147.503906 56.527344 147.34375 56.523438 147.167969 56.523438 C 146.992188 56.523438 146.832031 56.527344 146.683594 56.535156 C 146.53125 56.539063 146.386719 56.550781 146.242188 56.566406 C 146.160156 56.277344 146.070313 55.972656 145.972656 55.652344 C 145.871094 55.328125 145.730469 54.863281 145.539063 54.261719 C 145.394531 54.253906 145.234375 54.25 145.066406 54.242188 C 144.894531 54.238281 144.632813 54.238281 144.292969 54.238281 C 143.949219 54.238281 143.691406 54.238281 143.519531 54.242188 C 143.347656 54.25 143.1875 54.253906 143.042969 54.261719 C 142.839844 54.910156 142.683594 55.390625 142.574219 55.710938 C 142.46875 56.027344 142.371094 56.3125 142.285156 56.566406 C 142.183594 56.550781 142.097656 56.539063 142.027344 56.535156 C 141.957031 56.527344 141.890625 56.523438 141.824219 56.523438 C 141.730469 56.523438 141.582031 56.535156 141.375 56.558594 C 141.355469 56.5625 141.335938 56.566406 141.320313 56.566406 "/>
<path style=" stroke:none;fill-rule:evenodd;fill:rgb(100%,100%,100%);fill-opacity:1;" d="M 148.765625 55.765625 C 148.765625 55.503906 148.847656 55.285156 149.011719 55.109375 C 149.179688 54.933594 149.386719 54.847656 149.632813 54.847656 C 149.878906 54.847656 150.078125 54.933594 150.246094 55.109375 C 150.414063 55.285156 150.496094 55.503906 150.496094 55.765625 C 150.496094 56.023438 150.414063 56.242188 150.242188 56.429688 C 150.074219 56.613281 149.871094 56.707031 149.632813 56.707031 C 149.390625 56.707031 149.1875 56.613281 149.019531 56.429688 C 148.851563 56.242188 148.765625 56.023438 148.765625 55.765625 "/>
<path style=" stroke:none;fill-rule:evenodd;fill:rgb(100%,100%,100%);fill-opacity:1;" d="M 71.769531 56.566406 C 71.804688 56.234375 71.835938 55.859375 71.855469 55.4375 C 71.875 55.015625 71.882813 54.425781 71.882813 53.679688 L 71.882813 52.042969 C 71.882813 51.191406 71.875 50.527344 71.855469 50.046875 C 71.835938 49.5625 71.804688 49.128906 71.769531 48.738281 C 71.90625 48.753906 72.042969 48.765625 72.171875 48.773438 C 72.304688 48.78125 72.449219 48.785156 72.597656 48.785156 C 72.828125 48.785156 73.179688 48.777344 73.667969 48.761719 C 74.152344 48.746094 74.523438 48.738281 74.78125 48.738281 C 75.492188 48.738281 76.054688 48.792969 76.472656 48.90625 C 76.882813 49.019531 77.242188 49.203125 77.550781 49.460938 C 77.933594 49.785156 78.226563 50.207031 78.4375 50.726563 C 78.640625 51.25 78.746094 51.832031 78.746094 52.472656 C 78.746094 53.835938 78.378906 54.859375 77.644531 55.542969 C 76.910156 56.222656 75.8125 56.566406 74.351563 56.566406 C 74.09375 56.566406 73.757813 56.558594 73.355469 56.546875 C 72.953125 56.539063 72.679688 56.53125 72.539063 56.53125 C 72.402344 56.53125 72.203125 56.539063 71.957031 56.554688 C 71.875 56.558594 71.8125 56.5625 71.769531 56.566406 M 73.484375 55.867188 C 73.621094 55.886719 73.746094 55.90625 73.871094 55.917969 C 73.996094 55.929688 74.109375 55.933594 74.21875 55.933594 C 75.148438 55.933594 75.847656 55.652344 76.320313 55.089844 C 76.789063 54.53125 77.023438 53.695313 77.023438 52.578125 C 77.023438 51.453125 76.804688 50.644531 76.367188 50.152344 C 75.929688 49.65625 75.214844 49.40625 74.226563 49.40625 C 74.164063 49.40625 74.019531 49.410156 73.789063 49.417969 C 73.671875 49.421875 73.578125 49.421875 73.507813 49.425781 C 73.496094 49.933594 73.480469 50.484375 73.476563 51.074219 C 73.46875 51.65625 73.464844 52.3125 73.464844 53.027344 C 73.464844 53.785156 73.464844 54.363281 73.472656 54.757813 C 73.472656 55.15625 73.480469 55.523438 73.484375 55.867188 "/>
<path style=" stroke:none;fill-rule:evenodd;fill:rgb(100%,100%,100%);fill-opacity:1;" d="M 79.996094 56.566406 C 80.039063 56.160156 80.070313 55.699219 80.09375 55.179688 C 80.113281 54.660156 80.121094 53.824219 80.121094 52.660156 L 80.121094 52.089844 C 80.121094 51.21875 80.113281 50.546875 80.09375 50.054688 C 80.070313 49.566406 80.039063 49.128906 79.996094 48.738281 C 80.332031 48.753906 80.675781 48.765625 81.027344 48.773438 C 81.382813 48.78125 81.753906 48.785156 82.140625 48.785156 C 82.527344 48.785156 82.882813 48.78125 83.207031 48.773438 C 83.527344 48.765625 83.832031 48.753906 84.117188 48.738281 C 84.097656 48.867188 84.085938 48.96875 84.082031 49.035156 C 84.078125 49.109375 84.074219 49.171875 84.074219 49.230469 C 84.074219 49.292969 84.078125 49.351563 84.082031 49.417969 C 84.085938 49.484375 84.097656 49.582031 84.117188 49.710938 C 83.582031 49.671875 83.121094 49.648438 82.734375 49.628906 C 82.34375 49.605469 82.003906 49.59375 81.71875 49.589844 C 81.703125 49.726563 81.691406 49.875 81.6875 50.03125 C 81.683594 50.191406 81.679688 50.417969 81.679688 50.726563 L 81.679688 51.273438 L 81.683594 52.050781 C 81.910156 52.046875 82.296875 52.027344 82.839844 52.011719 C 83.386719 51.988281 83.796875 51.972656 84.074219 51.964844 C 84.058594 52.078125 84.046875 52.171875 84.039063 52.238281 C 84.039063 52.308594 84.03125 52.375 84.03125 52.441406 C 84.03125 52.546875 84.042969 52.699219 84.070313 52.902344 C 84.070313 52.917969 84.074219 52.929688 84.074219 52.9375 C 83.421875 52.894531 82.921875 52.867188 82.582031 52.851563 C 82.234375 52.835938 81.9375 52.828125 81.679688 52.828125 L 81.679688 54.207031 C 81.679688 54.699219 81.683594 55.042969 81.691406 55.238281 C 81.699219 55.441406 81.707031 55.605469 81.722656 55.738281 C 82.050781 55.726563 82.414063 55.710938 82.8125 55.679688 C 83.210938 55.652344 83.644531 55.613281 84.117188 55.570313 C 84.105469 55.644531 84.097656 55.71875 84.09375 55.796875 C 84.085938 55.867188 84.085938 55.941406 84.085938 56.019531 C 84.085938 56.09375 84.089844 56.199219 84.101563 56.332031 C 84.109375 56.457031 84.117188 56.535156 84.117188 56.566406 C 83.402344 56.539063 82.855469 56.53125 82.472656 56.523438 C 82.089844 56.511719 81.78125 56.507813 81.546875 56.507813 C 81.226563 56.507813 80.941406 56.511719 80.691406 56.523438 C 80.441406 56.535156 80.210938 56.546875 79.996094 56.566406 "/>
<path style=" stroke:none;fill-rule:evenodd;fill:rgb(100%,100%,100%);fill-opacity:1;" d="M 85.367188 56.566406 C 85.410156 56.042969 85.445313 55.472656 85.464844 54.859375 C 85.484375 54.25 85.496094 53.515625 85.496094 52.660156 C 85.496094 51.839844 85.484375 51.113281 85.464844 50.472656 C 85.445313 49.835938 85.410156 49.257813 85.367188 48.738281 C 85.519531 48.761719 85.664063 48.78125 85.816406 48.792969 C 85.96875 48.804688 86.117188 48.8125 86.265625 48.8125 C 86.414063 48.8125 86.5625 48.804688 86.710938 48.792969 C 86.863281 48.78125 87.011719 48.761719 87.160156 48.738281 C 87.121094 49.265625 87.085938 49.851563 87.066406 50.488281 C 87.042969 51.128906 87.03125 51.851563 87.03125 52.660156 C 87.03125 53.449219 87.039063 54.078125 87.046875 54.546875 C 87.0625 55.011719 87.078125 55.410156 87.105469 55.746094 C 87.542969 55.738281 87.960938 55.714844 88.363281 55.695313 C 88.761719 55.667969 89.15625 55.628906 89.539063 55.59375 C 89.527344 55.667969 89.527344 55.746094 89.519531 55.824219 C 89.515625 55.90625 89.507813 55.988281 89.507813 56.074219 C 89.507813 56.152344 89.515625 56.230469 89.519531 56.3125 C 89.527344 56.394531 89.527344 56.476563 89.539063 56.566406 C 89.042969 56.535156 88.625 56.515625 88.277344 56.503906 C 87.925781 56.496094 87.609375 56.488281 87.332031 56.488281 C 87.078125 56.488281 86.796875 56.496094 86.492188 56.503906 C 86.1875 56.515625 85.808594 56.535156 85.367188 56.566406 "/>
<path style=" stroke:none;fill-rule:evenodd;fill:rgb(100%,100%,100%);fill-opacity:1;" d="M 99.191406 50.539063 L 99.039063 50.5625 C 98.925781 50.15625 98.699219 49.839844 98.355469 49.613281 C 98.015625 49.386719 97.589844 49.273438 97.085938 49.273438 C 96.316406 49.273438 95.714844 49.5625 95.289063 50.144531 C 94.863281 50.722656 94.648438 51.535156 94.648438 52.578125 C 94.648438 53.707031 94.867188 54.5625 95.304688 55.15625 C 95.738281 55.746094 96.371094 56.042969 97.203125 56.042969 C 97.5625 56.042969 97.921875 55.964844 98.285156 55.816406 C 98.652344 55.667969 98.976563 55.460938 99.273438 55.191406 L 99.402344 55.226563 L 99.160156 56.1875 C 98.820313 56.367188 98.460938 56.5 98.09375 56.585938 C 97.722656 56.671875 97.332031 56.71875 96.921875 56.71875 C 95.671875 56.71875 94.703125 56.355469 94.007813 55.636719 C 93.308594 54.917969 92.964844 53.914063 92.964844 52.621094 C 92.964844 51.398438 93.335938 50.417969 94.089844 49.683594 C 94.835938 48.953125 95.835938 48.582031 97.09375 48.582031 C 97.492188 48.582031 97.882813 48.628906 98.277344 48.722656 C 98.667969 48.816406 99.0625 48.957031 99.46875 49.152344 C 99.402344 49.363281 99.347656 49.582031 99.304688 49.808594 C 99.257813 50.039063 99.21875 50.28125 99.1875 50.539063 "/>
<path style=" stroke:none;fill-rule:evenodd;fill:rgb(100%,100%,100%);fill-opacity:1;" d="M 100.433594 56.566406 C 100.472656 56.050781 100.503906 55.488281 100.527344 54.878906 C 100.542969 54.269531 100.558594 53.527344 100.558594 52.660156 C 100.558594 51.855469 100.542969 51.132813 100.527344 50.496094 C 100.507813 49.855469 100.472656 49.265625 100.433594 48.738281 C 100.582031 48.761719 100.730469 48.78125 100.882813 48.792969 C 101.03125 48.804688 101.179688 48.8125 101.328125 48.8125 C 101.480469 48.8125 101.628906 48.804688 101.777344 48.792969 C 101.929688 48.78125 102.078125 48.761719 102.226563 48.738281 C 102.195313 49.082031 102.175781 49.398438 102.160156 49.703125 C 102.144531 50.003906 102.140625 50.296875 102.140625 50.574219 L 102.140625 51.925781 C 102.578125 51.945313 102.910156 51.960938 103.128906 51.964844 C 103.355469 51.972656 103.554688 51.972656 103.738281 51.972656 C 103.925781 51.972656 104.132813 51.972656 104.347656 51.964844 C 104.574219 51.960938 104.902344 51.945313 105.34375 51.925781 L 105.34375 50.574219 C 105.34375 50.296875 105.339844 50.003906 105.324219 49.703125 C 105.3125 49.398438 105.285156 49.082031 105.257813 48.738281 C 105.40625 48.761719 105.558594 48.78125 105.703125 48.792969 C 105.855469 48.804688 106.003906 48.8125 106.15625 48.8125 C 106.300781 48.8125 106.453125 48.804688 106.605469 48.792969 C 106.75 48.78125 106.898438 48.761719 107.050781 48.738281 C 107.011719 49.265625 106.980469 49.855469 106.957031 50.496094 C 106.9375 51.132813 106.925781 51.855469 106.925781 52.660156 C 106.925781 53.527344 106.9375 54.269531 106.957031 54.878906 C 106.980469 55.488281 107.007813 56.050781 107.050781 56.566406 C 106.882813 56.546875 106.726563 56.535156 106.578125 56.523438 C 106.429688 56.511719 106.289063 56.507813 106.15625 56.507813 C 106.019531 56.507813 105.875 56.511719 105.730469 56.523438 C 105.578125 56.535156 105.425781 56.546875 105.261719 56.566406 C 105.285156 56.269531 105.304688 55.972656 105.320313 55.691406 C 105.339844 55.40625 105.34375 55.128906 105.34375 54.859375 L 105.339844 52.773438 C 105.074219 52.761719 104.804688 52.75 104.539063 52.75 C 104.277344 52.742188 104.011719 52.742188 103.738281 52.742188 C 103.472656 52.742188 103.203125 52.742188 102.941406 52.75 C 102.679688 52.75 102.410156 52.761719 102.144531 52.773438 L 102.140625 54.859375 C 102.140625 55.128906 102.144531 55.40625 102.160156 55.691406 C 102.175781 55.972656 102.191406 56.269531 102.222656 56.566406 C 102.054688 56.546875 101.898438 56.535156 101.75 56.523438 C 101.609375 56.511719 101.464844 56.507813 101.328125 56.507813 C 101.191406 56.507813 101.046875 56.511719 100.902344 56.523438 C 100.757813 56.535156 100.601563 56.546875 100.433594 56.566406 "/>
<path style=" stroke:none;fill-rule:evenodd;fill:rgb(100%,100%,100%);fill-opacity:1;" d="M 109.722656 53.503906 L 109.75 53.503906 C 110.160156 53.519531 110.46875 53.527344 110.675781 53.527344 L 111.035156 53.527344 C 111.160156 53.527344 111.359375 53.519531 111.621094 53.503906 C 111.484375 53.050781 111.339844 52.605469 111.183594 52.167969 C 111.027344 51.726563 110.863281 51.300781 110.699219 50.882813 C 110.519531 51.285156 110.347656 51.710938 110.1875 52.148438 C 110.027344 52.585938 109.871094 53.035156 109.722656 53.503906 M 107.703125 56.566406 C 108.222656 55.339844 108.726563 54.0625 109.222656 52.742188 C 109.714844 51.421875 110.203125 50.035156 110.6875 48.59375 C 110.761719 48.605469 110.835938 48.613281 110.90625 48.621094 C 110.976563 48.625 111.042969 48.628906 111.113281 48.628906 C 111.179688 48.628906 111.246094 48.625 111.308594 48.621094 C 111.371094 48.613281 111.4375 48.605469 111.496094 48.59375 C 111.925781 49.859375 112.386719 51.160156 112.878906 52.488281 C 113.375 53.816406 113.90625 55.171875 114.46875 56.566406 C 114.332031 56.550781 114.191406 56.539063 114.035156 56.535156 C 113.886719 56.527344 113.726563 56.523438 113.546875 56.523438 C 113.375 56.523438 113.214844 56.527344 113.066406 56.535156 C 112.914063 56.539063 112.769531 56.550781 112.628906 56.566406 C 112.542969 56.277344 112.453125 55.972656 112.355469 55.652344 C 112.253906 55.328125 112.113281 54.863281 111.917969 54.261719 C 111.777344 54.253906 111.617188 54.25 111.445313 54.242188 C 111.273438 54.238281 111.015625 54.238281 110.675781 54.238281 C 110.332031 54.238281 110.074219 54.238281 109.902344 54.242188 C 109.726563 54.25 109.570313 54.253906 109.425781 54.261719 C 109.21875 54.910156 109.066406 55.390625 108.957031 55.710938 C 108.851563 56.027344 108.753906 56.3125 108.664063 56.566406 C 108.566406 56.550781 108.480469 56.539063 108.410156 56.535156 C 108.335938 56.527344 108.269531 56.523438 108.207031 56.523438 C 108.109375 56.523438 107.960938 56.535156 107.761719 56.558594 C 107.738281 56.5625 107.714844 56.566406 107.703125 56.566406 "/>
<path style=" stroke:none;fill-rule:evenodd;fill:rgb(100%,100%,100%);fill-opacity:1;" d="M 120.953125 50.539063 L 120.800781 50.5625 C 120.6875 50.15625 120.457031 49.839844 120.117188 49.613281 C 119.777344 49.386719 119.351563 49.273438 118.84375 49.273438 C 118.078125 49.273438 117.476563 49.5625 117.050781 50.144531 C 116.621094 50.722656 116.410156 51.535156 116.410156 52.578125 C 116.410156 53.707031 116.628906 54.5625 117.066406 55.15625 C 117.5 55.746094 118.132813 56.042969 118.964844 56.042969 C 119.324219 56.042969 119.683594 55.964844 120.050781 55.816406 C 120.410156 55.667969 120.738281 55.460938 121.035156 55.191406 L 121.164063 55.226563 L 120.921875 56.1875 C 120.578125 56.367188 120.222656 56.5 119.855469 56.585938 C 119.484375 56.671875 119.09375 56.71875 118.683594 56.71875 C 117.433594 56.71875 116.464844 56.355469 115.769531 55.636719 C 115.074219 54.917969 114.722656 53.914063 114.722656 52.621094 C 114.722656 51.398438 115.097656 50.417969 115.847656 49.683594 C 116.597656 48.953125 117.597656 48.582031 118.851563 48.582031 C 119.25 48.582031 119.644531 48.628906 120.039063 48.722656 C 120.429688 48.816406 120.824219 48.957031 121.226563 49.152344 C 121.164063 49.363281 121.113281 49.582031 121.066406 49.808594 C 121.015625 50.039063 120.976563 50.28125 120.953125 50.539063 "/>
<path style=" stroke:none;fill-rule:evenodd;fill:rgb(100%,100%,100%);fill-opacity:1;" d="M 121.773438 52.773438 C 121.773438 51.46875 122.140625 50.445313 122.875 49.707031 C 123.605469 48.96875 124.628906 48.59375 125.925781 48.59375 C 127.175781 48.59375 128.144531 48.949219 128.828125 49.652344 C 129.507813 50.355469 129.847656 51.359375 129.847656 52.660156 C 129.847656 53.890625 129.480469 54.875 128.75 55.613281 C 128.015625 56.347656 127.039063 56.714844 125.8125 56.714844 C 124.511719 56.714844 123.519531 56.375 122.820313 55.695313 C 122.125 55.007813 121.773438 54.039063 121.773438 52.773438 M 123.492188 52.660156 C 123.492188 53.726563 123.695313 54.5625 124.105469 55.160156 C 124.515625 55.761719 125.085938 56.0625 125.8125 56.0625 C 126.527344 56.0625 127.09375 55.757813 127.503906 55.15625 C 127.914063 54.550781 128.117188 53.722656 128.117188 52.660156 C 128.117188 51.585938 127.914063 50.746094 127.503906 50.140625 C 127.09375 49.539063 126.527344 49.234375 125.8125 49.234375 C 125.089844 49.234375 124.519531 49.539063 124.109375 50.144531 C 123.695313 50.753906 123.492188 51.589844 123.492188 52.660156 "/>
<path style=" stroke:none;fill-rule:evenodd;fill:rgb(100%,100%,100%);fill-opacity:1;" d="M 133.546875 56.171875 C 133.605469 55.941406 133.671875 55.691406 133.730469 55.429688 C 133.785156 55.164063 133.84375 54.886719 133.894531 54.597656 L 134.039063 54.597656 C 134.128906 55.039063 134.316406 55.382813 134.589844 55.628906 C 134.859375 55.871094 135.195313 55.996094 135.59375 55.996094 C 135.957031 55.996094 136.246094 55.890625 136.464844 55.679688 C 136.683594 55.46875 136.792969 55.1875 136.792969 54.835938 C 136.792969 54.585938 136.722656 54.367188 136.582031 54.183594 C 136.441406 54 136.105469 53.75 135.5625 53.4375 C 134.738281 52.964844 134.199219 52.558594 133.953125 52.210938 C 133.703125 51.867188 133.578125 51.4375 133.578125 50.925781 C 133.578125 50.230469 133.808594 49.671875 134.265625 49.242188 C 134.726563 48.808594 135.332031 48.59375 136.085938 48.59375 C 136.417969 48.59375 136.722656 48.640625 137.003906 48.726563 C 137.28125 48.8125 137.550781 48.949219 137.796875 49.132813 C 137.726563 49.355469 137.660156 49.570313 137.601563 49.78125 C 137.539063 49.992188 137.488281 50.191406 137.445313 50.390625 L 137.328125 50.390625 C 137.222656 50.050781 137.035156 49.78125 136.785156 49.585938 C 136.527344 49.390625 136.234375 49.292969 135.894531 49.292969 C 135.582031 49.292969 135.328125 49.386719 135.140625 49.570313 C 134.945313 49.753906 134.851563 49.996094 134.851563 50.296875 C 134.851563 50.554688 134.921875 50.769531 135.0625 50.949219 C 135.207031 51.128906 135.523438 51.355469 136.015625 51.625 C 136.121094 51.691406 136.277344 51.773438 136.484375 51.878906 C 137.054688 52.179688 137.421875 52.417969 137.574219 52.589844 C 137.765625 52.800781 137.90625 53.035156 138 53.285156 C 138.089844 53.542969 138.136719 53.824219 138.136719 54.140625 C 138.136719 54.914063 137.894531 55.535156 137.40625 56.007813 C 136.917969 56.480469 136.269531 56.71875 135.453125 56.71875 C 135.027344 56.71875 134.65625 56.671875 134.34375 56.582031 C 134.03125 56.492188 133.765625 56.359375 133.546875 56.171875 "/>
<path style=" stroke:none;fill-rule:evenodd;fill:rgb(100%,100%,100%);fill-opacity:1;" d="M 139.144531 55.765625 C 139.144531 55.503906 139.230469 55.285156 139.394531 55.109375 C 139.558594 54.933594 139.769531 54.847656 140.011719 54.847656 C 140.257813 54.847656 140.464844 54.933594 140.628906 55.109375 C 140.796875 55.285156 140.878906 55.503906 140.878906 55.765625 C 140.878906 56.023438 140.792969 56.242188 140.621094 56.429688 C 140.453125 56.613281 140.25 56.707031 140.011719 56.707031 C 139.773438 56.707031 139.570313 56.613281 139.398438 56.429688 C 139.230469 56.242188 139.144531 56.023438 139.144531 55.765625 "/>
<path style=" stroke:none;fill-rule:evenodd;fill:rgb(100%,100%,100%);fill-opacity:1;" d="M 143.339844 53.503906 L 143.367188 53.503906 C 143.777344 53.519531 144.085938 53.527344 144.292969 53.527344 L 144.652344 53.527344 C 144.777344 53.527344 144.976563 53.519531 145.242188 53.503906 C 145.105469 53.050781 144.960938 52.605469 144.804688 52.167969 C 144.648438 51.726563 144.484375 51.300781 144.316406 50.882813 C 144.140625 51.285156 143.96875 51.710938 143.804688 52.148438 C 143.644531 52.585938 143.488281 53.035156 143.339844 53.503906 M 141.320313 56.566406 C 141.839844 55.339844 142.347656 54.0625 142.84375 52.742188 C 143.335938 51.421875 143.824219 50.035156 144.300781 48.59375 C 144.378906 48.605469 144.453125 48.613281 144.523438 48.621094 C 144.59375 48.625 144.660156 48.628906 144.730469 48.628906 C 144.796875 48.628906 144.863281 48.625 144.925781 48.621094 C 144.992188 48.613281 145.054688 48.605469 145.113281 48.59375 C 145.546875 49.859375 146.007813 51.160156 146.5 52.488281 C 146.992188 53.816406 147.523438 55.171875 148.085938 56.566406 C 147.953125 56.550781 147.808594 56.539063 147.65625 56.535156 C 147.503906 56.527344 147.34375 56.523438 147.167969 56.523438 C 146.992188 56.523438 146.832031 56.527344 146.683594 56.535156 C 146.53125 56.539063 146.386719 56.550781 146.242188 56.566406 C 146.160156 56.277344 146.070313 55.972656 145.972656 55.652344 C 145.871094 55.328125 145.730469 54.863281 145.539063 54.261719 C 145.394531 54.253906 145.234375 54.25 145.066406 54.242188 C 144.894531 54.238281 144.632813 54.238281 144.292969 54.238281 C 143.949219 54.238281 143.691406 54.238281 143.519531 54.242188 C 143.347656 54.25 143.1875 54.253906 143.042969 54.261719 C 142.839844 54.910156 142.683594 55.390625 142.574219 55.710938 C 142.46875 56.027344 142.371094 56.3125 142.285156 56.566406 C 142.183594 56.550781 142.097656 56.539063 142.027344 56.535156 C 141.957031 56.527344 141.890625 56.523438 141.824219 56.523438 C 141.730469 56.523438 141.582031 56.535156 141.375 56.558594 C 141.355469 56.5625 141.335938 56.566406 141.320313 56.566406 "/>
<path style=" stroke:none;fill-rule:evenodd;fill:rgb(100%,100%,100%);fill-opacity:1;" d="M 148.765625 55.765625 C 148.765625 55.503906 148.847656 55.285156 149.011719 55.109375 C 149.179688 54.933594 149.386719 54.847656 149.632813 54.847656 C 149.878906 54.847656 150.078125 54.933594 150.246094 55.109375 C 150.414063 55.285156 150.496094 55.503906 150.496094 55.765625 C 150.496094 56.023438 150.414063 56.242188 150.242188 56.429688 C 150.074219 56.613281 149.871094 56.707031 149.632813 56.707031 C 149.390625 56.707031 149.1875 56.613281 149.019531 56.429688 C 148.851563 56.242188 148.765625 56.023438 148.765625 55.765625 "/>
<path style=" stroke:none;fill-rule:evenodd;fill:rgb(100%,100%,100%);fill-opacity:1;" d="M 71.675781 43.515625 C 71.710938 42.96875 71.738281 42.375 71.761719 41.746094 C 71.777344 41.109375 71.789063 40.421875 71.789063 39.679688 C 71.789063 38.976563 71.777344 38.292969 71.761719 37.625 C 71.738281 36.957031 71.710938 36.3125 71.671875 35.695313 C 71.757813 35.707031 71.847656 35.714844 71.941406 35.726563 C 72.039063 35.730469 72.136719 35.734375 72.246094 35.734375 C 72.359375 35.734375 72.457031 35.730469 72.550781 35.726563 C 72.648438 35.71875 72.738281 35.707031 72.820313 35.695313 C 73.550781 36.566406 74.285156 37.441406 75.027344 38.316406 C 75.769531 39.191406 76.519531 40.070313 77.277344 40.949219 L 77.277344 39.601563 C 77.277344 39.351563 77.273438 38.867188 77.265625 38.148438 C 77.261719 37.425781 77.253906 36.609375 77.238281 35.695313 C 77.300781 35.707031 77.371094 35.714844 77.445313 35.726563 C 77.515625 35.730469 77.59375 35.734375 77.671875 35.734375 C 77.765625 35.734375 77.847656 35.730469 77.921875 35.726563 C 77.996094 35.714844 78.066406 35.707031 78.132813 35.695313 C 78.101563 36.019531 78.082031 36.519531 78.066406 37.199219 C 78.054688 37.875 78.050781 38.964844 78.050781 40.46875 L 78.050781 41.101563 C 78.050781 41.710938 78.054688 42.199219 78.066406 42.554688 C 78.082031 42.914063 78.101563 43.234375 78.132813 43.515625 C 78.050781 43.5 77.96875 43.484375 77.898438 43.472656 C 77.820313 43.464844 77.746094 43.460938 77.671875 43.460938 C 77.609375 43.460938 77.53125 43.464844 77.453125 43.472656 C 77.375 43.484375 77.292969 43.5 77.203125 43.515625 C 76.539063 42.703125 75.828125 41.851563 75.070313 40.960938 C 74.316406 40.0625 73.472656 39.085938 72.542969 38.027344 L 72.542969 41.375 C 72.542969 41.511719 72.550781 41.777344 72.558594 42.167969 C 72.566406 42.558594 72.574219 43.003906 72.589844 43.515625 C 72.496094 43.5 72.414063 43.484375 72.34375 43.472656 C 72.273438 43.464844 72.199219 43.460938 72.132813 43.460938 C 72.0625 43.460938 71.992188 43.464844 71.917969 43.472656 C 71.84375 43.484375 71.765625 43.5 71.675781 43.515625 "/>
<path style=" stroke:none;fill-rule:evenodd;fill:rgb(100%,100%,100%);fill-opacity:1;" d="M 79.671875 35.6875 C 79.808594 35.707031 79.953125 35.714844 80.105469 35.722656 C 80.261719 35.730469 80.417969 35.734375 80.59375 35.734375 C 80.757813 35.734375 80.910156 35.730469 81.058594 35.722656 C 81.199219 35.714844 81.339844 35.707031 81.46875 35.6875 C 81.414063 36.289063 81.371094 36.933594 81.34375 37.609375 C 81.320313 38.289063 81.304688 39.039063 81.304688 39.851563 C 81.304688 40.515625 81.324219 40.980469 81.359375 41.257813 C 81.390625 41.535156 81.445313 41.777344 81.519531 41.984375 C 81.636719 42.300781 81.832031 42.546875 82.109375 42.71875 C 82.390625 42.894531 82.726563 42.980469 83.121094 42.980469 C 83.503906 42.980469 83.84375 42.90625 84.132813 42.757813 C 84.421875 42.609375 84.652344 42.398438 84.824219 42.117188 C 84.964844 41.886719 85.058594 41.585938 85.117188 41.214844 C 85.175781 40.84375 85.203125 40.238281 85.203125 39.394531 C 85.203125 38.691406 85.191406 38.027344 85.175781 37.414063 C 85.152344 36.804688 85.121094 36.226563 85.078125 35.6875 C 85.160156 35.707031 85.242188 35.714844 85.332031 35.722656 C 85.421875 35.730469 85.511719 35.734375 85.613281 35.734375 C 85.71875 35.734375 85.808594 35.730469 85.898438 35.722656 C 85.988281 35.714844 86.070313 35.707031 86.144531 35.6875 C 86.109375 36.210938 86.085938 36.683594 86.070313 37.097656 C 86.058594 37.515625 86.046875 37.875 86.046875 38.183594 C 86.046875 38.359375 86.050781 38.636719 86.058594 39.011719 C 86.066406 39.390625 86.070313 39.675781 86.070313 39.875 C 86.070313 40.625 86.019531 41.207031 85.917969 41.621094 C 85.816406 42.03125 85.652344 42.382813 85.417969 42.667969 C 85.144531 43.003906 84.800781 43.253906 84.382813 43.417969 C 83.964844 43.585938 83.46875 43.667969 82.898438 43.667969 C 82.273438 43.667969 81.730469 43.574219 81.273438 43.390625 C 80.820313 43.203125 80.480469 42.933594 80.25 42.585938 C 80.078125 42.335938 79.957031 42.003906 79.886719 41.597656 C 79.8125 41.191406 79.78125 40.546875 79.78125 39.667969 L 79.78125 38.660156 C 79.78125 37.941406 79.769531 37.359375 79.753906 36.917969 C 79.734375 36.476563 79.710938 36.066406 79.671875 35.6875 "/>
<path style=" stroke:none;fill-rule:evenodd;fill:rgb(100%,100%,100%);fill-opacity:1;" d="M 87.730469 43.515625 C 87.773438 43.117188 87.804688 42.652344 87.828125 42.128906 C 87.847656 41.609375 87.851563 40.773438 87.851563 39.613281 L 87.851563 39.039063 C 87.851563 38.171875 87.847656 37.496094 87.828125 37.003906 C 87.804688 36.515625 87.773438 36.078125 87.730469 35.6875 C 88.0625 35.707031 88.410156 35.714844 88.761719 35.722656 C 89.121094 35.730469 89.488281 35.730469 89.875 35.730469 C 90.265625 35.730469 90.617188 35.730469 90.941406 35.722656 C 91.261719 35.714844 91.566406 35.707031 91.847656 35.6875 C 91.835938 35.816406 91.824219 35.914063 91.816406 35.984375 C 91.8125 36.058594 91.8125 36.121094 91.8125 36.183594 C 91.8125 36.242188 91.8125 36.300781 91.816406 36.371094 C 91.824219 36.4375 91.835938 36.53125 91.847656 36.660156 C 91.320313 36.625 90.855469 36.59375 90.46875 36.578125 C 90.082031 36.554688 89.742188 36.542969 89.453125 36.539063 C 89.441406 36.675781 89.429688 36.824219 89.421875 36.980469 C 89.417969 37.140625 89.417969 37.371094 89.417969 37.675781 L 89.417969 38.222656 L 89.421875 39.003906 C 89.648438 38.996094 90.03125 38.984375 90.574219 38.960938 C 91.121094 38.941406 91.53125 38.925781 91.8125 38.910156 C 91.792969 39.03125 91.78125 39.121094 91.777344 39.1875 C 91.769531 39.261719 91.769531 39.328125 91.769531 39.394531 C 91.769531 39.5 91.78125 39.652344 91.800781 39.851563 C 91.808594 39.867188 91.8125 39.878906 91.8125 39.886719 C 91.15625 39.84375 90.65625 39.816406 90.3125 39.800781 C 89.972656 39.789063 89.671875 39.78125 89.417969 39.78125 L 89.417969 41.15625 C 89.417969 41.648438 89.417969 41.996094 89.425781 42.191406 C 89.433594 42.390625 89.445313 42.554688 89.457031 42.691406 C 89.785156 42.675781 90.144531 42.660156 90.542969 42.628906 C 90.945313 42.605469 91.378906 42.5625 91.847656 42.523438 C 91.839844 42.597656 91.835938 42.671875 91.828125 42.742188 C 91.824219 42.8125 91.824219 42.890625 91.824219 42.96875 C 91.824219 43.046875 91.828125 43.148438 91.835938 43.277344 C 91.847656 43.40625 91.847656 43.484375 91.847656 43.515625 C 91.136719 43.496094 90.589844 43.476563 90.207031 43.472656 C 89.828125 43.464844 89.515625 43.460938 89.28125 43.460938 C 88.957031 43.460938 88.675781 43.464844 88.425781 43.472656 C 88.179688 43.484375 87.949219 43.5 87.730469 43.515625 "/>
<path style=" stroke:none;fill-rule:evenodd;fill:rgb(100%,100%,100%);fill-opacity:1;" d="M 95.050781 43.511719 C 94.773438 42.652344 94.382813 41.535156 93.878906 40.160156 C 93.378906 38.78125 92.820313 37.292969 92.207031 35.6875 C 92.34375 35.707031 92.488281 35.714844 92.636719 35.722656 C 92.785156 35.730469 92.941406 35.734375 93.113281 35.734375 C 93.28125 35.734375 93.4375 35.730469 93.585938 35.722656 C 93.734375 35.714844 93.875 35.707031 94.007813 35.6875 C 94.238281 36.386719 94.503906 37.199219 94.816406 38.117188 C 95.128906 39.039063 95.492188 40.117188 95.917969 41.347656 C 96.257813 40.511719 96.59375 39.617188 96.921875 38.671875 C 97.253906 37.730469 97.582031 36.734375 97.90625 35.6875 C 97.984375 35.707031 98.070313 35.714844 98.144531 35.722656 C 98.226563 35.730469 98.3125 35.734375 98.402344 35.734375 C 98.503906 35.734375 98.59375 35.730469 98.679688 35.722656 C 98.765625 35.714844 98.847656 35.707031 98.921875 35.6875 C 98.378906 36.972656 97.855469 38.265625 97.359375 39.570313 C 96.867188 40.875 96.394531 42.1875 95.949219 43.511719 C 95.871094 43.492188 95.789063 43.480469 95.714844 43.472656 C 95.644531 43.464844 95.574219 43.460938 95.5 43.460938 C 95.4375 43.460938 95.363281 43.464844 95.289063 43.472656 C 95.214844 43.484375 95.136719 43.496094 95.050781 43.511719 "/>
<path style=" stroke:none;fill-rule:evenodd;fill:rgb(100%,100%,100%);fill-opacity:1;" d="M 99.082031 39.722656 C 99.082031 38.417969 99.453125 37.394531 100.183594 36.65625 C 100.921875 35.914063 101.9375 35.546875 103.238281 35.546875 C 104.488281 35.546875 105.453125 35.898438 106.136719 36.605469 C 106.820313 37.308594 107.15625 38.308594 107.15625 39.613281 C 107.15625 40.839844 106.789063 41.828125 106.058594 42.5625 C 105.324219 43.300781 104.34375 43.664063 103.121094 43.664063 C 101.824219 43.664063 100.824219 43.328125 100.132813 42.644531 C 99.433594 41.960938 99.082031 40.988281 99.082031 39.722656 M 100.800781 39.613281 C 100.800781 40.679688 101.003906 41.511719 101.417969 42.109375 C 101.824219 42.714844 102.394531 43.011719 103.121094 43.011719 C 103.839844 43.011719 104.402344 42.710938 104.8125 42.105469 C 105.222656 41.5 105.425781 40.671875 105.425781 39.613281 C 105.425781 38.535156 105.222656 37.695313 104.8125 37.089844 C 104.402344 36.488281 103.839844 36.183594 103.121094 36.183594 C 102.398438 36.183594 101.832031 36.488281 101.421875 37.097656 C 101.007813 37.703125 100.800781 38.539063 100.800781 39.613281 "/>
<path style=" stroke:none;fill-rule:evenodd;fill:rgb(100%,100%,100%);fill-opacity:1;" d="M 111.253906 43.515625 C 111.289063 43.183594 111.316406 42.804688 111.339844 42.382813 C 111.359375 41.964844 111.367188 41.378906 111.367188 40.628906 L 111.367188 39.613281 C 111.367188 38.429688 111.359375 37.585938 111.34375 37.066406 C 111.324219 36.546875 111.296875 36.089844 111.253906 35.6875 C 111.566406 35.699219 111.839844 35.707031 112.058594 35.714844 C 112.285156 35.71875 112.464844 35.726563 112.601563 35.726563 C 112.746094 35.726563 112.960938 35.71875 113.238281 35.707031 C 113.515625 35.695313 113.714844 35.6875 113.835938 35.6875 C 114.617188 35.6875 115.207031 35.839844 115.597656 36.140625 C 115.992188 36.441406 116.1875 36.890625 116.1875 37.492188 C 116.1875 38.023438 116 38.453125 115.621094 38.769531 C 115.246094 39.085938 114.710938 39.273438 114.015625 39.320313 L 114.015625 39.382813 C 114.8125 39.382813 115.398438 39.542969 115.789063 39.867188 C 116.179688 40.183594 116.367188 40.675781 116.367188 41.339844 C 116.371094 42.027344 116.148438 42.558594 115.703125 42.945313 C 115.265625 43.328125 114.644531 43.515625 113.84375 43.515625 C 113.652344 43.515625 113.347656 43.507813 112.9375 43.496094 C 112.519531 43.476563 112.203125 43.472656 111.988281 43.472656 C 111.859375 43.472656 111.648438 43.484375 111.34375 43.511719 C 111.300781 43.515625 111.273438 43.515625 111.253906 43.515625 M 112.957031 42.855469 C 113.046875 42.875 113.117188 42.886719 113.171875 42.894531 C 113.230469 42.902344 113.28125 42.910156 113.335938 42.910156 C 113.773438 42.910156 114.109375 42.769531 114.347656 42.492188 C 114.585938 42.214844 114.699219 41.820313 114.699219 41.304688 C 114.699219 40.796875 114.574219 40.40625 114.328125 40.132813 C 114.074219 39.867188 113.710938 39.734375 113.238281 39.734375 C 113.15625 39.734375 113.089844 39.734375 113.046875 39.738281 C 113.003906 39.738281 112.957031 39.746094 112.914063 39.75 L 112.914063 41.234375 C 112.914063 41.496094 112.921875 41.761719 112.925781 42.035156 C 112.9375 42.304688 112.945313 42.578125 112.957031 42.855469 M 112.90625 39.121094 C 112.933594 39.121094 112.96875 39.121094 113.015625 39.125 C 113.066406 39.128906 113.101563 39.132813 113.121094 39.132813 C 113.628906 39.132813 114.003906 39.007813 114.25 38.757813 C 114.492188 38.507813 114.617188 38.125 114.617188 37.601563 C 114.617188 37.183594 114.507813 36.867188 114.289063 36.648438 C 114.066406 36.433594 113.746094 36.324219 113.324219 36.324219 L 113.195313 36.324219 C 113.15625 36.324219 113.082031 36.332031 112.984375 36.347656 C 112.957031 36.539063 112.9375 36.753906 112.925781 36.984375 C 112.914063 37.222656 112.90625 37.480469 112.90625 37.765625 "/>
<path style=" stroke:none;fill-rule:evenodd;fill:rgb(100%,100%,100%);fill-opacity:1;" d="M 118.738281 40.457031 L 118.769531 40.457031 C 119.175781 40.472656 119.484375 40.476563 119.691406 40.476563 L 120.050781 40.476563 C 120.179688 40.476563 120.371094 40.46875 120.640625 40.457031 C 120.503906 40 120.355469 39.554688 120.199219 39.121094 C 120.046875 38.679688 119.882813 38.25 119.714844 37.832031 C 119.535156 38.238281 119.367188 38.660156 119.203125 39.097656 C 119.039063 39.535156 118.886719 39.984375 118.738281 40.457031 M 116.71875 43.515625 C 117.234375 42.289063 117.742188 41.015625 118.238281 39.691406 C 118.734375 38.371094 119.222656 36.984375 119.703125 35.546875 C 119.777344 35.558594 119.851563 35.5625 119.921875 35.570313 C 119.992188 35.578125 120.0625 35.578125 120.132813 35.578125 C 120.195313 35.578125 120.261719 35.578125 120.324219 35.570313 C 120.390625 35.5625 120.453125 35.558594 120.511719 35.546875 C 120.941406 36.8125 121.40625 38.113281 121.898438 39.4375 C 122.390625 40.765625 122.921875 42.125 123.484375 43.515625 C 123.347656 43.5 123.203125 43.492188 123.050781 43.484375 C 122.902344 43.472656 122.742188 43.472656 122.566406 43.472656 C 122.390625 43.472656 122.230469 43.472656 122.082031 43.484375 C 121.933594 43.492188 121.785156 43.5 121.644531 43.515625 C 121.558594 43.230469 121.46875 42.925781 121.371094 42.601563 C 121.269531 42.277344 121.128906 41.8125 120.9375 41.210938 C 120.789063 41.203125 120.632813 41.199219 120.464844 41.191406 C 120.289063 41.191406 120.03125 41.1875 119.691406 41.1875 C 119.347656 41.1875 119.089844 41.191406 118.917969 41.191406 C 118.746094 41.199219 118.585938 41.203125 118.4375 41.210938 C 118.234375 41.863281 118.078125 42.34375 117.972656 42.660156 C 117.867188 42.976563 117.773438 43.261719 117.683594 43.515625 C 117.585938 43.5 117.496094 43.492188 117.425781 43.484375 C 117.351563 43.472656 117.289063 43.472656 117.222656 43.472656 C 117.128906 43.472656 116.980469 43.484375 116.773438 43.511719 C 116.753906 43.515625 116.730469 43.515625 116.71875 43.515625 "/>
<path style=" stroke:none;fill-rule:evenodd;fill:rgb(100%,100%,100%);fill-opacity:1;" d="M 124.0625 43.515625 C 124.097656 42.96875 124.128906 42.375 124.148438 41.746094 C 124.167969 41.109375 124.175781 40.421875 124.175781 39.679688 C 124.175781 38.976563 124.167969 38.292969 124.148438 37.625 C 124.128906 36.957031 124.097656 36.3125 124.0625 35.695313 C 124.144531 35.707031 124.238281 35.714844 124.328125 35.726563 C 124.421875 35.730469 124.527344 35.734375 124.636719 35.734375 C 124.746094 35.734375 124.847656 35.730469 124.941406 35.726563 C 125.035156 35.71875 125.121094 35.707031 125.210938 35.695313 C 125.9375 36.566406 126.671875 37.441406 127.414063 38.316406 C 128.160156 39.191406 128.90625 40.070313 129.667969 40.949219 L 129.667969 39.601563 C 129.667969 39.351563 129.664063 38.867188 129.65625 38.148438 C 129.648438 37.425781 129.640625 36.609375 129.625 35.695313 C 129.691406 35.707031 129.761719 35.714844 129.835938 35.726563 C 129.90625 35.730469 129.980469 35.734375 130.0625 35.734375 C 130.152344 35.734375 130.234375 35.730469 130.3125 35.726563 C 130.386719 35.714844 130.460938 35.707031 130.523438 35.695313 C 130.492188 36.019531 130.46875 36.519531 130.460938 37.199219 C 130.445313 37.875 130.441406 38.964844 130.441406 40.46875 L 130.441406 41.101563 C 130.441406 41.710938 130.445313 42.199219 130.460938 42.554688 C 130.46875 42.914063 130.492188 43.234375 130.523438 43.515625 C 130.441406 43.5 130.359375 43.484375 130.285156 43.472656 C 130.210938 43.464844 130.132813 43.460938 130.0625 43.460938 C 129.992188 43.460938 129.921875 43.464844 129.839844 43.472656 C 129.765625 43.484375 129.683594 43.5 129.59375 43.515625 C 128.929688 42.703125 128.214844 41.851563 127.460938 40.960938 C 126.703125 40.0625 125.859375 39.085938 124.933594 38.027344 L 124.933594 41.375 C 124.933594 41.511719 124.9375 41.777344 124.949219 42.167969 C 124.953125 42.558594 124.964844 43.003906 124.976563 43.515625 C 124.886719 43.5 124.800781 43.484375 124.730469 43.472656 C 124.660156 43.464844 124.589844 43.460938 124.519531 43.460938 C 124.453125 43.460938 124.382813 43.464844 124.308594 43.472656 C 124.234375 43.484375 124.152344 43.5 124.0625 43.515625 "/>
<path style=" stroke:none;fill-rule:evenodd;fill:rgb(100%,100%,100%);fill-opacity:1;" d="M 137.875 37.492188 L 137.722656 37.511719 C 137.605469 37.105469 137.382813 36.789063 137.035156 36.5625 C 136.699219 36.339844 136.273438 36.226563 135.765625 36.226563 C 134.996094 36.226563 134.398438 36.515625 133.972656 37.09375 C 133.546875 37.671875 133.328125 38.484375 133.328125 39.53125 C 133.328125 40.652344 133.550781 41.511719 133.984375 42.105469 C 134.421875 42.695313 135.054688 42.992188 135.886719 42.992188 C 136.242188 42.992188 136.601563 42.917969 136.972656 42.765625 C 137.328125 42.621094 137.664063 42.410156 137.960938 42.140625 L 138.089844 42.175781 L 137.84375 43.136719 C 137.5 43.3125 137.144531 43.449219 136.773438 43.535156 C 136.40625 43.621094 136.015625 43.667969 135.601563 43.667969 C 134.355469 43.667969 133.386719 43.308594 132.6875 42.589844 C 131.992188 41.871094 131.644531 40.859375 131.644531 39.570313 C 131.644531 38.351563 132.019531 37.371094 132.769531 36.636719 C 133.519531 35.898438 134.519531 35.535156 135.777344 35.535156 C 136.175781 35.535156 136.566406 35.578125 136.960938 35.675781 C 137.351563 35.765625 137.746094 35.910156 138.148438 36.105469 C 138.089844 36.3125 138.03125 36.53125 137.988281 36.761719 C 137.9375 36.992188 137.898438 37.230469 137.875 37.492188 "/>
<path style=" stroke:none;fill-rule:evenodd;fill:rgb(100%,100%,100%);fill-opacity:1;" d="M 138.695313 39.722656 C 138.695313 38.417969 139.0625 37.394531 139.796875 36.65625 C 140.53125 35.914063 141.546875 35.546875 142.851563 35.546875 C 144.101563 35.546875 145.066406 35.898438 145.75 36.605469 C 146.429688 37.308594 146.769531 38.308594 146.769531 39.613281 C 146.769531 40.839844 146.402344 41.828125 145.671875 42.5625 C 144.9375 43.300781 143.957031 43.664063 142.730469 43.664063 C 141.433594 43.664063 140.4375 43.328125 139.742188 42.644531 C 139.046875 41.960938 138.695313 40.988281 138.695313 39.722656 M 140.414063 39.613281 C 140.414063 40.679688 140.617188 41.511719 141.027344 42.109375 C 141.4375 42.714844 142.007813 43.011719 142.730469 43.011719 C 143.449219 43.011719 144.015625 42.710938 144.421875 42.105469 C 144.835938 41.5 145.039063 40.671875 145.039063 39.613281 C 145.039063 38.535156 144.835938 37.695313 144.421875 37.089844 C 144.015625 36.488281 143.449219 36.183594 142.730469 36.183594 C 142.011719 36.183594 141.441406 36.488281 141.03125 37.097656 C 140.617188 37.703125 140.414063 38.539063 140.414063 39.613281 "/>
<path style=" stroke:none;fill-rule:evenodd;fill:rgb(100%,100%,100%);fill-opacity:1;" d="M 71.675781 43.515625 C 71.710938 42.96875 71.738281 42.375 71.761719 41.746094 C 71.777344 41.109375 71.789063 40.421875 71.789063 39.679688 C 71.789063 38.976563 71.777344 38.292969 71.761719 37.625 C 71.738281 36.957031 71.710938 36.3125 71.671875 35.695313 C 71.757813 35.707031 71.847656 35.714844 71.941406 35.726563 C 72.039063 35.730469 72.136719 35.734375 72.246094 35.734375 C 72.359375 35.734375 72.457031 35.730469 72.550781 35.726563 C 72.648438 35.71875 72.738281 35.707031 72.820313 35.695313 C 73.550781 36.566406 74.285156 37.441406 75.027344 38.316406 C 75.769531 39.191406 76.519531 40.070313 77.277344 40.949219 L 77.277344 39.601563 C 77.277344 39.351563 77.273438 38.867188 77.265625 38.148438 C 77.261719 37.425781 77.253906 36.609375 77.238281 35.695313 C 77.300781 35.707031 77.371094 35.714844 77.445313 35.726563 C 77.515625 35.730469 77.59375 35.734375 77.671875 35.734375 C 77.765625 35.734375 77.847656 35.730469 77.921875 35.726563 C 77.996094 35.714844 78.066406 35.707031 78.132813 35.695313 C 78.101563 36.019531 78.082031 36.519531 78.066406 37.199219 C 78.054688 37.875 78.050781 38.964844 78.050781 40.46875 L 78.050781 41.101563 C 78.050781 41.710938 78.054688 42.199219 78.066406 42.554688 C 78.082031 42.914063 78.101563 43.234375 78.132813 43.515625 C 78.050781 43.5 77.96875 43.484375 77.898438 43.472656 C 77.820313 43.464844 77.746094 43.460938 77.671875 43.460938 C 77.609375 43.460938 77.53125 43.464844 77.453125 43.472656 C 77.375 43.484375 77.292969 43.5 77.203125 43.515625 C 76.539063 42.703125 75.828125 41.851563 75.070313 40.960938 C 74.316406 40.0625 73.472656 39.085938 72.542969 38.027344 L 72.542969 41.375 C 72.542969 41.511719 72.550781 41.777344 72.558594 42.167969 C 72.566406 42.558594 72.574219 43.003906 72.589844 43.515625 C 72.496094 43.5 72.414063 43.484375 72.34375 43.472656 C 72.273438 43.464844 72.199219 43.460938 72.132813 43.460938 C 72.0625 43.460938 71.992188 43.464844 71.917969 43.472656 C 71.84375 43.484375 71.765625 43.5 71.675781 43.515625 "/>
<path style=" stroke:none;fill-rule:evenodd;fill:rgb(100%,100%,100%);fill-opacity:1;" d="M 79.671875 35.6875 C 79.808594 35.707031 79.953125 35.714844 80.105469 35.722656 C 80.261719 35.730469 80.417969 35.734375 80.59375 35.734375 C 80.757813 35.734375 80.910156 35.730469 81.058594 35.722656 C 81.199219 35.714844 81.339844 35.707031 81.46875 35.6875 C 81.414063 36.289063 81.371094 36.933594 81.34375 37.609375 C 81.320313 38.289063 81.304688 39.039063 81.304688 39.851563 C 81.304688 40.515625 81.324219 40.980469 81.359375 41.257813 C 81.390625 41.535156 81.445313 41.777344 81.519531 41.984375 C 81.636719 42.300781 81.832031 42.546875 82.109375 42.71875 C 82.390625 42.894531 82.726563 42.980469 83.121094 42.980469 C 83.503906 42.980469 83.84375 42.90625 84.132813 42.757813 C 84.421875 42.609375 84.652344 42.398438 84.824219 42.117188 C 84.964844 41.886719 85.058594 41.585938 85.117188 41.214844 C 85.175781 40.84375 85.203125 40.238281 85.203125 39.394531 C 85.203125 38.691406 85.191406 38.027344 85.175781 37.414063 C 85.152344 36.804688 85.121094 36.226563 85.078125 35.6875 C 85.160156 35.707031 85.242188 35.714844 85.332031 35.722656 C 85.421875 35.730469 85.511719 35.734375 85.613281 35.734375 C 85.71875 35.734375 85.808594 35.730469 85.898438 35.722656 C 85.988281 35.714844 86.070313 35.707031 86.144531 35.6875 C 86.109375 36.210938 86.085938 36.683594 86.070313 37.097656 C 86.058594 37.515625 86.046875 37.875 86.046875 38.183594 C 86.046875 38.359375 86.050781 38.636719 86.058594 39.011719 C 86.066406 39.390625 86.070313 39.675781 86.070313 39.875 C 86.070313 40.625 86.019531 41.207031 85.917969 41.621094 C 85.816406 42.03125 85.652344 42.382813 85.417969 42.667969 C 85.144531 43.003906 84.800781 43.253906 84.382813 43.417969 C 83.964844 43.585938 83.46875 43.667969 82.898438 43.667969 C 82.273438 43.667969 81.730469 43.574219 81.273438 43.390625 C 80.820313 43.203125 80.480469 42.933594 80.25 42.585938 C 80.078125 42.335938 79.957031 42.003906 79.886719 41.597656 C 79.8125 41.191406 79.78125 40.546875 79.78125 39.667969 L 79.78125 38.660156 C 79.78125 37.941406 79.769531 37.359375 79.753906 36.917969 C 79.734375 36.476563 79.710938 36.066406 79.671875 35.6875 "/>
<path style=" stroke:none;fill-rule:evenodd;fill:rgb(100%,100%,100%);fill-opacity:1;" d="M 87.730469 43.515625 C 87.773438 43.117188 87.804688 42.652344 87.828125 42.128906 C 87.847656 41.609375 87.851563 40.773438 87.851563 39.613281 L 87.851563 39.039063 C 87.851563 38.171875 87.847656 37.496094 87.828125 37.003906 C 87.804688 36.515625 87.773438 36.078125 87.730469 35.6875 C 88.0625 35.707031 88.410156 35.714844 88.761719 35.722656 C 89.121094 35.730469 89.488281 35.730469 89.875 35.730469 C 90.265625 35.730469 90.617188 35.730469 90.941406 35.722656 C 91.261719 35.714844 91.566406 35.707031 91.847656 35.6875 C 91.835938 35.816406 91.824219 35.914063 91.816406 35.984375 C 91.8125 36.058594 91.8125 36.121094 91.8125 36.183594 C 91.8125 36.242188 91.8125 36.300781 91.816406 36.371094 C 91.824219 36.4375 91.835938 36.53125 91.847656 36.660156 C 91.320313 36.625 90.855469 36.59375 90.46875 36.578125 C 90.082031 36.554688 89.742188 36.542969 89.453125 36.539063 C 89.441406 36.675781 89.429688 36.824219 89.421875 36.980469 C 89.417969 37.140625 89.417969 37.371094 89.417969 37.675781 L 89.417969 38.222656 L 89.421875 39.003906 C 89.648438 38.996094 90.03125 38.984375 90.574219 38.960938 C 91.121094 38.941406 91.53125 38.925781 91.8125 38.910156 C 91.792969 39.03125 91.78125 39.121094 91.777344 39.1875 C 91.769531 39.261719 91.769531 39.328125 91.769531 39.394531 C 91.769531 39.5 91.78125 39.652344 91.800781 39.851563 C 91.808594 39.867188 91.8125 39.878906 91.8125 39.886719 C 91.15625 39.84375 90.65625 39.816406 90.3125 39.800781 C 89.972656 39.789063 89.671875 39.78125 89.417969 39.78125 L 89.417969 41.15625 C 89.417969 41.648438 89.417969 41.996094 89.425781 42.191406 C 89.433594 42.390625 89.445313 42.554688 89.457031 42.691406 C 89.785156 42.675781 90.144531 42.660156 90.542969 42.628906 C 90.945313 42.605469 91.378906 42.5625 91.847656 42.523438 C 91.839844 42.597656 91.835938 42.671875 91.828125 42.742188 C 91.824219 42.8125 91.824219 42.890625 91.824219 42.96875 C 91.824219 43.046875 91.828125 43.148438 91.835938 43.277344 C 91.847656 43.40625 91.847656 43.484375 91.847656 43.515625 C 91.136719 43.496094 90.589844 43.476563 90.207031 43.472656 C 89.828125 43.464844 89.515625 43.460938 89.28125 43.460938 C 88.957031 43.460938 88.675781 43.464844 88.425781 43.472656 C 88.179688 43.484375 87.949219 43.5 87.730469 43.515625 "/>
<path style=" stroke:none;fill-rule:evenodd;fill:rgb(100%,100%,100%);fill-opacity:1;" d="M 95.050781 43.511719 C 94.773438 42.652344 94.382813 41.535156 93.878906 40.160156 C 93.378906 38.78125 92.820313 37.292969 92.207031 35.6875 C 92.34375 35.707031 92.488281 35.714844 92.636719 35.722656 C 92.785156 35.730469 92.941406 35.734375 93.113281 35.734375 C 93.28125 35.734375 93.4375 35.730469 93.585938 35.722656 C 93.734375 35.714844 93.875 35.707031 94.007813 35.6875 C 94.238281 36.386719 94.503906 37.199219 94.816406 38.117188 C 95.128906 39.039063 95.492188 40.117188 95.917969 41.347656 C 96.257813 40.511719 96.59375 39.617188 96.921875 38.671875 C 97.253906 37.730469 97.582031 36.734375 97.90625 35.6875 C 97.984375 35.707031 98.070313 35.714844 98.144531 35.722656 C 98.226563 35.730469 98.3125 35.734375 98.402344 35.734375 C 98.503906 35.734375 98.59375 35.730469 98.679688 35.722656 C 98.765625 35.714844 98.847656 35.707031 98.921875 35.6875 C 98.378906 36.972656 97.855469 38.265625 97.359375 39.570313 C 96.867188 40.875 96.394531 42.1875 95.949219 43.511719 C 95.871094 43.492188 95.789063 43.480469 95.714844 43.472656 C 95.644531 43.464844 95.574219 43.460938 95.5 43.460938 C 95.4375 43.460938 95.363281 43.464844 95.289063 43.472656 C 95.214844 43.484375 95.136719 43.496094 95.050781 43.511719 "/>
<path style=" stroke:none;fill-rule:evenodd;fill:rgb(100%,100%,100%);fill-opacity:1;" d="M 99.082031 39.722656 C 99.082031 38.417969 99.453125 37.394531 100.183594 36.65625 C 100.921875 35.914063 101.9375 35.546875 103.238281 35.546875 C 104.488281 35.546875 105.453125 35.898438 106.136719 36.605469 C 106.820313 37.308594 107.15625 38.308594 107.15625 39.613281 C 107.15625 40.839844 106.789063 41.828125 106.058594 42.5625 C 105.324219 43.300781 104.34375 43.664063 103.121094 43.664063 C 101.824219 43.664063 100.824219 43.328125 100.132813 42.644531 C 99.433594 41.960938 99.082031 40.988281 99.082031 39.722656 M 100.800781 39.613281 C 100.800781 40.679688 101.003906 41.511719 101.417969 42.109375 C 101.824219 42.714844 102.394531 43.011719 103.121094 43.011719 C 103.839844 43.011719 104.402344 42.710938 104.8125 42.105469 C 105.222656 41.5 105.425781 40.671875 105.425781 39.613281 C 105.425781 38.535156 105.222656 37.695313 104.8125 37.089844 C 104.402344 36.488281 103.839844 36.183594 103.121094 36.183594 C 102.398438 36.183594 101.832031 36.488281 101.421875 37.097656 C 101.007813 37.703125 100.800781 38.539063 100.800781 39.613281 "/>
<path style=" stroke:none;fill-rule:evenodd;fill:rgb(100%,100%,100%);fill-opacity:1;" d="M 111.253906 43.515625 C 111.289063 43.183594 111.316406 42.804688 111.339844 42.382813 C 111.359375 41.964844 111.367188 41.378906 111.367188 40.628906 L 111.367188 39.613281 C 111.367188 38.429688 111.359375 37.585938 111.34375 37.066406 C 111.324219 36.546875 111.296875 36.089844 111.253906 35.6875 C 111.566406 35.699219 111.839844 35.707031 112.058594 35.714844 C 112.285156 35.71875 112.464844 35.726563 112.601563 35.726563 C 112.746094 35.726563 112.960938 35.71875 113.238281 35.707031 C 113.515625 35.695313 113.714844 35.6875 113.835938 35.6875 C 114.617188 35.6875 115.207031 35.839844 115.597656 36.140625 C 115.992188 36.441406 116.1875 36.890625 116.1875 37.492188 C 116.1875 38.023438 116 38.453125 115.621094 38.769531 C 115.246094 39.085938 114.710938 39.273438 114.015625 39.320313 L 114.015625 39.382813 C 114.8125 39.382813 115.398438 39.542969 115.789063 39.867188 C 116.179688 40.183594 116.367188 40.675781 116.367188 41.339844 C 116.371094 42.027344 116.148438 42.558594 115.703125 42.945313 C 115.265625 43.328125 114.644531 43.515625 113.84375 43.515625 C 113.652344 43.515625 113.347656 43.507813 112.9375 43.496094 C 112.519531 43.476563 112.203125 43.472656 111.988281 43.472656 C 111.859375 43.472656 111.648438 43.484375 111.34375 43.511719 C 111.300781 43.515625 111.273438 43.515625 111.253906 43.515625 M 112.957031 42.855469 C 113.046875 42.875 113.117188 42.886719 113.171875 42.894531 C 113.230469 42.902344 113.28125 42.910156 113.335938 42.910156 C 113.773438 42.910156 114.109375 42.769531 114.347656 42.492188 C 114.585938 42.214844 114.699219 41.820313 114.699219 41.304688 C 114.699219 40.796875 114.574219 40.40625 114.328125 40.132813 C 114.074219 39.867188 113.710938 39.734375 113.238281 39.734375 C 113.15625 39.734375 113.089844 39.734375 113.046875 39.738281 C 113.003906 39.738281 112.957031 39.746094 112.914063 39.75 L 112.914063 41.234375 C 112.914063 41.496094 112.921875 41.761719 112.925781 42.035156 C 112.9375 42.304688 112.945313 42.578125 112.957031 42.855469 M 112.90625 39.121094 C 112.933594 39.121094 112.96875 39.121094 113.015625 39.125 C 113.066406 39.128906 113.101563 39.132813 113.121094 39.132813 C 113.628906 39.132813 114.003906 39.007813 114.25 38.757813 C 114.492188 38.507813 114.617188 38.125 114.617188 37.601563 C 114.617188 37.183594 114.507813 36.867188 114.289063 36.648438 C 114.066406 36.433594 113.746094 36.324219 113.324219 36.324219 L 113.195313 36.324219 C 113.15625 36.324219 113.082031 36.332031 112.984375 36.347656 C 112.957031 36.539063 112.9375 36.753906 112.925781 36.984375 C 112.914063 37.222656 112.90625 37.480469 112.90625 37.765625 "/>
<path style=" stroke:none;fill-rule:evenodd;fill:rgb(100%,100%,100%);fill-opacity:1;" d="M 118.738281 40.457031 L 118.769531 40.457031 C 119.175781 40.472656 119.484375 40.476563 119.691406 40.476563 L 120.050781 40.476563 C 120.179688 40.476563 120.371094 40.46875 120.640625 40.457031 C 120.503906 40 120.355469 39.554688 120.199219 39.121094 C 120.046875 38.679688 119.882813 38.25 119.714844 37.832031 C 119.535156 38.238281 119.367188 38.660156 119.203125 39.097656 C 119.039063 39.535156 118.886719 39.984375 118.738281 40.457031 M 116.71875 43.515625 C 117.234375 42.289063 117.742188 41.015625 118.238281 39.691406 C 118.734375 38.371094 119.222656 36.984375 119.703125 35.546875 C 119.777344 35.558594 119.851563 35.5625 119.921875 35.570313 C 119.992188 35.578125 120.0625 35.578125 120.132813 35.578125 C 120.195313 35.578125 120.261719 35.578125 120.324219 35.570313 C 120.390625 35.5625 120.453125 35.558594 120.511719 35.546875 C 120.941406 36.8125 121.40625 38.113281 121.898438 39.4375 C 122.390625 40.765625 122.921875 42.125 123.484375 43.515625 C 123.347656 43.5 123.203125 43.492188 123.050781 43.484375 C 122.902344 43.472656 122.742188 43.472656 122.566406 43.472656 C 122.390625 43.472656 122.230469 43.472656 122.082031 43.484375 C 121.933594 43.492188 121.785156 43.5 121.644531 43.515625 C 121.558594 43.230469 121.46875 42.925781 121.371094 42.601563 C 121.269531 42.277344 121.128906 41.8125 120.9375 41.210938 C 120.789063 41.203125 120.632813 41.199219 120.464844 41.191406 C 120.289063 41.191406 120.03125 41.1875 119.691406 41.1875 C 119.347656 41.1875 119.089844 41.191406 118.917969 41.191406 C 118.746094 41.199219 118.585938 41.203125 118.4375 41.210938 C 118.234375 41.863281 118.078125 42.34375 117.972656 42.660156 C 117.867188 42.976563 117.773438 43.261719 117.683594 43.515625 C 117.585938 43.5 117.496094 43.492188 117.425781 43.484375 C 117.351563 43.472656 117.289063 43.472656 117.222656 43.472656 C 117.128906 43.472656 116.980469 43.484375 116.773438 43.511719 C 116.753906 43.515625 116.730469 43.515625 116.71875 43.515625 "/>
<path style=" stroke:none;fill-rule:evenodd;fill:rgb(100%,100%,100%);fill-opacity:1;" d="M 124.0625 43.515625 C 124.097656 42.96875 124.128906 42.375 124.148438 41.746094 C 124.167969 41.109375 124.175781 40.421875 124.175781 39.679688 C 124.175781 38.976563 124.167969 38.292969 124.148438 37.625 C 124.128906 36.957031 124.097656 36.3125 124.0625 35.695313 C 124.144531 35.707031 124.238281 35.714844 124.328125 35.726563 C 124.421875 35.730469 124.527344 35.734375 124.636719 35.734375 C 124.746094 35.734375 124.847656 35.730469 124.941406 35.726563 C 125.035156 35.71875 125.121094 35.707031 125.210938 35.695313 C 125.9375 36.566406 126.671875 37.441406 127.414063 38.316406 C 128.160156 39.191406 128.90625 40.070313 129.667969 40.949219 L 129.667969 39.601563 C 129.667969 39.351563 129.664063 38.867188 129.65625 38.148438 C 129.648438 37.425781 129.640625 36.609375 129.625 35.695313 C 129.691406 35.707031 129.761719 35.714844 129.835938 35.726563 C 129.90625 35.730469 129.980469 35.734375 130.0625 35.734375 C 130.152344 35.734375 130.234375 35.730469 130.3125 35.726563 C 130.386719 35.714844 130.460938 35.707031 130.523438 35.695313 C 130.492188 36.019531 130.46875 36.519531 130.460938 37.199219 C 130.445313 37.875 130.441406 38.964844 130.441406 40.46875 L 130.441406 41.101563 C 130.441406 41.710938 130.445313 42.199219 130.460938 42.554688 C 130.46875 42.914063 130.492188 43.234375 130.523438 43.515625 C 130.441406 43.5 130.359375 43.484375 130.285156 43.472656 C 130.210938 43.464844 130.132813 43.460938 130.0625 43.460938 C 129.992188 43.460938 129.921875 43.464844 129.839844 43.472656 C 129.765625 43.484375 129.683594 43.5 129.59375 43.515625 C 128.929688 42.703125 128.214844 41.851563 127.460938 40.960938 C 126.703125 40.0625 125.859375 39.085938 124.933594 38.027344 L 124.933594 41.375 C 124.933594 41.511719 124.9375 41.777344 124.949219 42.167969 C 124.953125 42.558594 124.964844 43.003906 124.976563 43.515625 C 124.886719 43.5 124.800781 43.484375 124.730469 43.472656 C 124.660156 43.464844 124.589844 43.460938 124.519531 43.460938 C 124.453125 43.460938 124.382813 43.464844 124.308594 43.472656 C 124.234375 43.484375 124.152344 43.5 124.0625 43.515625 "/>
<path style=" stroke:none;fill-rule:evenodd;fill:rgb(100%,100%,100%);fill-opacity:1;" d="M 137.875 37.492188 L 137.722656 37.511719 C 137.605469 37.105469 137.382813 36.789063 137.035156 36.5625 C 136.699219 36.339844 136.273438 36.226563 135.765625 36.226563 C 134.996094 36.226563 134.398438 36.515625 133.972656 37.09375 C 133.546875 37.671875 133.328125 38.484375 133.328125 39.53125 C 133.328125 40.652344 133.550781 41.511719 133.984375 42.105469 C 134.421875 42.695313 135.054688 42.992188 135.886719 42.992188 C 136.242188 42.992188 136.601563 42.917969 136.972656 42.765625 C 137.328125 42.621094 137.664063 42.410156 137.960938 42.140625 L 138.089844 42.175781 L 137.84375 43.136719 C 137.5 43.3125 137.144531 43.449219 136.773438 43.535156 C 136.40625 43.621094 136.015625 43.667969 135.601563 43.667969 C 134.355469 43.667969 133.386719 43.308594 132.6875 42.589844 C 131.992188 41.871094 131.644531 40.859375 131.644531 39.570313 C 131.644531 38.351563 132.019531 37.371094 132.769531 36.636719 C 133.519531 35.898438 134.519531 35.535156 135.777344 35.535156 C 136.175781 35.535156 136.566406 35.578125 136.960938 35.675781 C 137.351563 35.765625 137.746094 35.910156 138.148438 36.105469 C 138.089844 36.3125 138.03125 36.53125 137.988281 36.761719 C 137.9375 36.992188 137.898438 37.230469 137.875 37.492188 "/>
<path style=" stroke:none;fill-rule:evenodd;fill:rgb(100%,100%,100%);fill-opacity:1;" d="M 138.695313 39.722656 C 138.695313 38.417969 139.0625 37.394531 139.796875 36.65625 C 140.53125 35.914063 141.546875 35.546875 142.851563 35.546875 C 144.101563 35.546875 145.066406 35.898438 145.75 36.605469 C 146.429688 37.308594 146.769531 38.308594 146.769531 39.613281 C 146.769531 40.839844 146.402344 41.828125 145.671875 42.5625 C 144.9375 43.300781 143.957031 43.664063 142.730469 43.664063 C 141.433594 43.664063 140.4375 43.328125 139.742188 42.644531 C 139.046875 41.960938 138.695313 40.988281 138.695313 39.722656 M 140.414063 39.613281 C 140.414063 40.679688 140.617188 41.511719 141.027344 42.109375 C 141.4375 42.714844 142.007813 43.011719 142.730469 43.011719 C 143.449219 43.011719 144.015625 42.710938 144.421875 42.105469 C 144.835938 41.5 145.039063 40.671875 145.039063 39.613281 C 145.039063 38.535156 144.835938 37.695313 144.421875 37.089844 C 144.015625 36.488281 143.449219 36.183594 142.730469 36.183594 C 142.011719 36.183594 141.441406 36.488281 141.03125 37.097656 C 140.617188 37.703125 140.414063 38.539063 140.414063 39.613281 "/>
<path style=" stroke:none;fill-rule:evenodd;fill:rgb(100%,100%,100%);fill-opacity:1;" d="M 68.402344 47.136719 L 151.882813 47.136719 L 151.882813 46.039063 L 68.402344 46.039063 Z M 68.402344 47.136719 "/>
<path style=" stroke:none;fill-rule:evenodd;fill:rgb(100%,100%,100%);fill-opacity:1;" d="M 63.238281 69.074219 L 62.570313 69.074219 C 62.042969 68.570313 61.570313 68.203125 61.175781 67.980469 C 60.773438 67.75 60.402344 67.632813 60.058594 67.632813 C 59.71875 67.632813 59.050781 67.753906 58.058594 67.992188 C 57.074219 68.230469 56.324219 68.40625 55.820313 68.511719 C 54.664063 68.734375 53.484375 68.90625 52.296875 69.027344 C 51.105469 69.140625 49.902344 69.203125 48.6875 69.203125 C 45.933594 69.203125 43.371094 68.917969 41.007813 68.34375 C 38.632813 67.765625 36.570313 66.941406 34.804688 65.851563 C 33.058594 64.792969 31.753906 63.582031 30.882813 62.230469 C 30.019531 60.867188 29.585938 59.367188 29.585938 57.726563 C 29.585938 56.097656 30.027344 54.632813 30.90625 53.328125 C 31.785156 52.023438 33.152344 50.824219 34.988281 49.726563 C 36.699219 48.699219 38.683594 47.925781 40.9375 47.402344 C 43.1875 46.886719 45.683594 46.628906 48.421875 46.628906 C 49.695313 46.628906 50.941406 46.683594 52.152344 46.796875 C 53.367188 46.90625 54.5625 47.085938 55.730469 47.320313 C 56.230469 47.414063 56.980469 47.582031 57.976563 47.820313 C 58.96875 48.058594 59.628906 48.179688 59.972656 48.179688 C 60.3125 48.179688 60.683594 48.066406 61.082031 47.835938 C 61.484375 47.609375 61.941406 47.246094 62.457031 46.742188 L 63.148438 46.742188 L 63.148438 54.328125 L 62.109375 54.328125 C 60.433594 52.046875 58.425781 50.3125 56.089844 49.140625 C 53.742188 47.960938 51.121094 47.375 48.222656 47.375 C 44.5 47.375 41.660156 48.269531 39.675781 50.058594 C 37.699219 51.84375 36.714844 54.433594 36.714844 57.824219 C 36.714844 61.070313 37.757813 63.644531 39.84375 65.550781 C 41.929688 67.457031 44.714844 68.410156 48.179688 68.410156 C 50.796875 68.410156 53.320313 67.796875 55.738281 66.574219 C 58.164063 65.351563 60.355469 63.574219 62.328125 61.25 L 63.238281 61.25 "/>
<path style=" stroke:none;fill-rule:evenodd;fill:rgb(100%,100%,100%);fill-opacity:1;" d="M 59.824219 43.214844 C 59.824219 43.535156 59.386719 44.300781 59.140625 44.558594 C 58.890625 44.875 58.261719 45.324219 57.761719 45.386719 C 57.386719 45.453125 56.574219 45.578125 55.828125 45.578125 C 55.011719 45.578125 54.386719 45.386719 54.136719 45.261719 C 53.886719 45.132813 53.703125 44.429688 53.703125 43.917969 L 53.703125 36.898438 L 55.328125 36.898438 C 56.828125 36.898438 58.386719 37.472656 58.949219 38.113281 C 59.511719 38.8125 60.078125 40.027344 60.078125 41.367188 C 60.078125 42.003906 59.824219 42.769531 59.824219 43.214844 M 53.703125 29.941406 C 53.703125 29.5625 53.761719 29.242188 53.761719 29.113281 C 53.761719 29.050781 53.886719 28.925781 54.011719 28.925781 C 54.203125 28.925781 54.515625 28.796875 54.949219 28.796875 C 55.890625 28.796875 56.765625 29.050781 57.261719 29.113281 C 57.765625 29.175781 58.511719 29.6875 58.699219 30.136719 C 58.890625 30.457031 59.261719 31.347656 59.261719 32.242188 C 59.265625 33.390625 58.886719 34.410156 58.386719 35.113281 C 57.886719 35.816406 56.949219 36.199219 55.703125 36.199219 L 53.703125 36.199219 Z M 62.324219 38.367188 C 61.640625 37.667969 60.203125 36.964844 58.640625 36.644531 C 59.453125 36.515625 60.261719 36.003906 60.824219 35.75 C 61.261719 35.496094 62.074219 34.855469 62.199219 34.347656 C 62.386719 33.835938 62.699219 33.070313 62.699219 32.367188 C 62.699219 31.601563 62.386719 30.710938 61.953125 30.136719 C 61.511719 29.5625 60.511719 28.925781 59.574219 28.671875 C 58.640625 28.476563 57.199219 28.160156 55.640625 28.160156 L 51.570313 28.160156 L 51.570313 28.113281 L 45.792969 28.113281 L 45.792969 28.6875 C 46.722656 28.730469 47.378906 29.007813 47.761719 29.527344 C 48.011719 29.863281 48.175781 30.363281 48.261719 31.03125 L 48.261719 40.972656 L 37.335938 28.113281 L 30.773438 28.113281 L 30.773438 28.714844 L 31.039063 28.714844 C 31.929688 28.714844 32.503906 28.820313 32.757813 29.035156 C 33.007813 29.246094 33.132813 29.785156 33.132813 30.640625 L 33.132813 42.082031 C 33.132813 43.300781 32.957031 44.167969 32.609375 44.691406 C 32.261719 45.214844 31.648438 45.546875 30.773438 45.675781 L 30.773438 46.246094 L 36.5625 46.246094 L 36.5625 45.675781 C 35.628906 45.640625 34.964844 45.363281 34.589844 44.839844 C 34.207031 44.316406 34.015625 43.398438 34.015625 42.082031 L 34.015625 29.894531 L 48.210938 46.601563 L 49.210938 46.601563 L 49.210938 46.28125 L 56.765625 46.28125 C 58.136719 46.28125 59.636719 45.894531 60.574219 45.707031 C 61.386719 45.515625 62.453125 44.875 62.886719 44.175781 C 63.324219 43.601563 63.636719 42.515625 63.636719 41.496094 C 63.636719 40.28125 63.074219 39.070313 62.324219 38.367188 "/>
</g>
</svg>
